<svg xmlns="http://www.w3.org/2000/svg" xmlns:xlink="http://www.w3.org/1999/xlink" version="1.1" class="marks" width="825" height="450" viewBox="0 0 825 450"><rect width="825" height="450" fill="white"/><g fill="none" stroke-miterlimit="10" transform="translate(59,69)"><g class="mark-group role-frame root" role="graphics-object" aria-roledescription="group mark container"><g transform="translate(0,0)"><path class="background" aria-hidden="true" d="M0,0h0v0h0Z"/><g><g class="mark-group role-row-header row_header" role="graphics-object" aria-roledescription="group mark container"><g transform="translate(-1,0)"><path class="background" aria-hidden="true" d="M0,0h0v300h0Z"/><g><g class="mark-group role-axis" role="graphics-symbol" aria-roledescription="axis" aria-label="Y-axis titled 'Accuracy (%)' for a linear scale with values from 0 to 100"><g transform="translate(0.5,0.5)"><path class="background" aria-hidden="true" d="M0,0h0v0h0Z" pointer-events="none"/><g><g class="mark-rule role-axis-tick" pointer-events="none"><line transform="translate(0,300)" x2="-5" y2="0" stroke="#888" stroke-width="1" opacity="1"/><line transform="translate(0,240)" x2="-5" y2="0" stroke="#888" stroke-width="1" opacity="1"/><line transform="translate(0,180)" x2="-5" y2="0" stroke="#888" stroke-width="1" opacity="1"/><line transform="translate(0,120)" x2="-5" y2="0" stroke="#888" stroke-width="1" opacity="1"/><line transform="translate(0,60)" x2="-5" y2="0" stroke="#888" stroke-width="1" opacity="1"/><line transform="translate(0,0)" x2="-5" y2="0" stroke="#888" stroke-width="1" opacity="1"/></g><g class="mark-text role-axis-label" pointer-events="none"><text text-anchor="end" transform="translate(-7,303)" font-family="sans-serif" font-size="11px" fill="#000" opacity="1">0</text><text text-anchor="end" transform="translate(-7,243)" font-family="sans-serif" font-size="11px" fill="#000" opacity="1">20</text><text text-anchor="end" transform="translate(-7,183)" font-family="sans-serif" font-size="11px" fill="#000" opacity="1">40</text><text text-anchor="end" transform="translate(-7,123)" font-family="sans-serif" font-size="11px" fill="#000" opacity="1">60</text><text text-anchor="end" transform="translate(-7,62.999999999999986)" font-family="sans-serif" font-size="11px" fill="#000" opacity="1">80</text><text text-anchor="end" transform="translate(-7,3)" font-family="sans-serif" font-size="11px" fill="#000" opacity="1">100</text></g><g class="mark-rule role-axis-domain" pointer-events="none"><line transform="translate(0,300)" x2="0" y2="-300" stroke="#888" stroke-width="1" opacity="1"/></g><g class="mark-text role-axis-title" pointer-events="none"><text text-anchor="middle" transform="translate(-37,150) rotate(-90) translate(0,-3)" font-family="sans-serif" font-size="12px" font-weight="bold" fill="#000" opacity="1">Accuracy (%)</text></g></g><path class="foreground" aria-hidden="true" d="" pointer-events="none" display="none"/></g></g></g><path class="foreground" aria-hidden="true" d="" display="none"/></g></g><g class="mark-group role-column-header column_header" role="graphics-object" aria-roledescription="group mark container"><g transform="translate(0,-5)"><path class="background" aria-hidden="true" d="M0,0h280v0h-280Z"/><g><g class="mark-group role-title"><g transform="translate(140,-23)"><path class="background" aria-hidden="true" d="M0,0h0v0h0Z" pointer-events="none"/><g><g class="mark-text role-title-text" role="graphics-symbol" aria-roledescription="title" aria-label="Title text 'QA1'" pointer-events="none"><text text-anchor="middle" transform="translate(0,10)" font-family="sans-serif" font-size="13px" font-weight="bold" fill="#000" opacity="1">QA1</text></g></g><path class="foreground" aria-hidden="true" d="" pointer-events="none" display="none"/></g></g></g><path class="foreground" aria-hidden="true" d="" display="none"/></g><g transform="translate(302,-5)"><path class="background" aria-hidden="true" d="M0,0h280v0h-280Z"/><g><g class="mark-group role-title"><g transform="translate(140,-23)"><path class="background" aria-hidden="true" d="M0,0h0v0h0Z" pointer-events="none"/><g><g class="mark-text role-title-text" role="graphics-symbol" aria-roledescription="title" aria-label="Title text 'QA2'" pointer-events="none"><text text-anchor="middle" transform="translate(0,10)" font-family="sans-serif" font-size="13px" font-weight="bold" fill="#000" opacity="1">QA2</text></g></g><path class="foreground" aria-hidden="true" d="" pointer-events="none" display="none"/></g></g></g><path class="foreground" aria-hidden="true" d="" display="none"/></g></g><g class="mark-group role-column-footer column_footer" role="graphics-object" aria-roledescription="group mark container"><g transform="translate(0,301)"><path class="background" aria-hidden="true" d="M0,0h280v0h-280Z"/><g><g class="mark-group role-axis" role="graphics-symbol" aria-roledescription="axis" aria-label="X-axis titled 'Length' for a discrete scale with 2 values: 4K, 8K"><g transform="translate(0.5,0.5)"><path class="background" aria-hidden="true" d="M0,0h0v0h0Z" pointer-events="none"/><g><g class="mark-text role-axis-label" pointer-events="none"><text text-anchor="middle" transform="translate(70,11)" font-family="sans-serif" font-size="12px" fill="#000" opacity="1">4K</text><text text-anchor="middle" transform="translate(210,11)" font-family="sans-serif" font-size="12px" fill="#000" opacity="1">8K</text></g><g class="mark-text role-axis-title" pointer-events="none"><text text-anchor="middle" transform="translate(140,26)" font-family="sans-serif" font-size="11px" font-weight="bold" fill="#000" opacity="1">Length</text></g></g><path class="foreground" aria-hidden="true" d="" pointer-events="none" display="none"/></g></g></g><path class="foreground" aria-hidden="true" d="" display="none"/></g><g transform="translate(302,301)"><path class="background" aria-hidden="true" d="M0,0h280v0h-280Z"/><g><g class="mark-group role-axis" role="graphics-symbol" aria-roledescription="axis" aria-label="X-axis titled 'Length' for a discrete scale with 2 values: 4K, 8K"><g transform="translate(0.5,0.5)"><path class="background" aria-hidden="true" d="M0,0h0v0h0Z" pointer-events="none"/><g><g class="mark-text role-axis-label" pointer-events="none"><text text-anchor="middle" transform="translate(70,11)" font-family="sans-serif" font-size="12px" fill="#000" opacity="1">4K</text><text text-anchor="middle" transform="translate(210,11)" font-family="sans-serif" font-size="12px" fill="#000" opacity="1">8K</text></g><g class="mark-text role-axis-title" pointer-events="none"><text text-anchor="middle" transform="translate(140,26)" font-family="sans-serif" font-size="11px" font-weight="bold" fill="#000" opacity="1">Length</text></g></g><path class="foreground" aria-hidden="true" d="" pointer-events="none" display="none"/></g></g></g><path class="foreground" aria-hidden="true" d="" display="none"/></g></g><g class="mark-group role-scope cell" role="graphics-object" aria-roledescription="group mark container"><g transform="translate(0,0)"><path class="background" aria-hidden="true" d="M0.5,0.5h280v300h-280Z" stroke="#ddd"/><g><g class="mark-group role-axis" aria-hidden="true"><g transform="translate(0.5,0.5)"><path class="background" aria-hidden="true" d="M0,0h0v0h0Z" pointer-events="none"/><g><g class="mark-rule role-axis-grid" pointer-events="none"><line transform="translate(0,300)" x2="280" y2="0" stroke="#eef2f7" stroke-width="1" opacity="1"/><line transform="translate(0,240)" x2="280" y2="0" stroke="#eef2f7" stroke-width="1" opacity="1"/><line transform="translate(0,180)" x2="280" y2="0" stroke="#eef2f7" stroke-width="1" opacity="1"/><line transform="translate(0,120)" x2="280" y2="0" stroke="#eef2f7" stroke-width="1" opacity="1"/><line transform="translate(0,60)" x2="280" y2="0" stroke="#eef2f7" stroke-width="1" opacity="1"/><line transform="translate(0,0)" x2="280" y2="0" stroke="#eef2f7" stroke-width="1" opacity="1"/></g></g><path class="foreground" aria-hidden="true" d="" pointer-events="none" display="none"/></g></g><g class="mark-group role-scope child_layer_0_pathgroup" role="graphics-object" aria-roledescription="group mark container"><g transform="translate(0,0)"><path class="background" aria-hidden="true" d="M0,0h280v300h-280Z"/><g><g class="mark-line role-mark child_layer_0_marks" role="graphics-object" aria-roledescription="line mark container"><path aria-label="Length: 4K; Accuracy (%): 100; system: CSM (ours, n=30)" role="graphics-symbol" aria-roledescription="line mark" d="M70,0L210,0" stroke="#0e7c66" stroke-width="2.8"/></g></g><path class="foreground" aria-hidden="true" d="" display="none"/></g><g transform="translate(0,0)"><path class="background" aria-hidden="true" d="M0,0h280v300h-280Z"/><g><g class="mark-line role-mark child_layer_0_marks" role="graphics-object" aria-roledescription="line mark container"><path aria-label="Length: 4K; Accuracy (%): 100; system: ARMT fine-tune" role="graphics-symbol" aria-roledescription="line mark" d="M70,0L210,0" stroke="#f59e0b" stroke-width="2.8"/></g></g><path class="foreground" aria-hidden="true" d="" display="none"/></g><g transform="translate(0,0)"><path class="background" aria-hidden="true" d="M0,0h280v300h-280Z"/><g><g class="mark-line role-mark child_layer_0_marks" role="graphics-object" aria-roledescription="line mark container"><path aria-label="Length: 4K; Accuracy (%): 100; system: Mamba fine-tune" role="graphics-symbol" aria-roledescription="line mark" d="M70,0L210,0" stroke="#8b5cf6" stroke-width="2.8"/></g></g><path class="foreground" aria-hidden="true" d="" display="none"/></g><g transform="translate(0,0)"><path class="background" aria-hidden="true" d="M0,0h280v300h-280Z"/><g><g class="mark-line role-mark child_layer_0_marks" role="graphics-object" aria-roledescription="line mark container"><path aria-label="Length: 4K; Accuracy (%): 100; system: RMT fine-tune" role="graphics-symbol" aria-roledescription="line mark" d="M70,0L210,0" stroke="#64748b" stroke-width="2.8"/></g></g><path class="foreground" aria-hidden="true" d="" display="none"/></g><g transform="translate(0,0)"><path class="background" aria-hidden="true" d="M0,0h280v300h-280Z"/><g><g class="mark-line role-mark child_layer_0_marks" role="graphics-object" aria-roledescription="line mark container"><path aria-label="Length: 4K; Accuracy (%): 95; system: GPT-4" role="graphics-symbol" aria-roledescription="line mark" d="M70,15L210,21" stroke="#2563eb" stroke-width="2.8"/></g></g><path class="foreground" aria-hidden="true" d="" display="none"/></g><g transform="translate(0,0)"><path class="background" aria-hidden="true" d="M0,0h280v300h-280Z"/><g><g class="mark-line role-mark child_layer_0_marks" role="graphics-object" aria-roledescription="line mark container"><path aria-label="Length: 4K; Accuracy (%): 58; system: ChatQA + RAG" role="graphics-symbol" aria-roledescription="line mark" d="M70,126L210,126" stroke="#94a3b8" stroke-width="2.8"/></g></g><path class="foreground" aria-hidden="true" d="" display="none"/></g></g><g class="mark-symbol role-mark child_layer_1_marks" role="graphics-object" aria-roledescription="symbol mark container"><path aria-label="Length: 4K; Accuracy (%): 100; system: CSM (ours, n=30)" role="graphics-symbol" aria-roledescription="point" transform="translate(70,0)" d="M3.873,0A3.873,3.873,0,1,1,-3.873,0A3.873,3.873,0,1,1,3.873,0" fill="#0e7c66" stroke-width="2" opacity="0.7"/><path aria-label="Length: 8K; Accuracy (%): 100; system: CSM (ours, n=30)" role="graphics-symbol" aria-roledescription="point" transform="translate(210,0)" d="M3.873,0A3.873,3.873,0,1,1,-3.873,0A3.873,3.873,0,1,1,3.873,0" fill="#0e7c66" stroke-width="2" opacity="0.7"/><path aria-label="Length: 4K; Accuracy (%): 100; system: ARMT fine-tune" role="graphics-symbol" aria-roledescription="point" transform="translate(70,0)" d="M3.873,0A3.873,3.873,0,1,1,-3.873,0A3.873,3.873,0,1,1,3.873,0" fill="#f59e0b" stroke-width="2" opacity="0.7"/><path aria-label="Length: 8K; Accuracy (%): 100; system: ARMT fine-tune" role="graphics-symbol" aria-roledescription="point" transform="translate(210,0)" d="M3.873,0A3.873,3.873,0,1,1,-3.873,0A3.873,3.873,0,1,1,3.873,0" fill="#f59e0b" stroke-width="2" opacity="0.7"/><path aria-label="Length: 4K; Accuracy (%): 100; system: Mamba fine-tune" role="graphics-symbol" aria-roledescription="point" transform="translate(70,0)" d="M3.873,0A3.873,3.873,0,1,1,-3.873,0A3.873,3.873,0,1,1,3.873,0" fill="#8b5cf6" stroke-width="2" opacity="0.7"/><path aria-label="Length: 8K; Accuracy (%): 100; system: Mamba fine-tune" role="graphics-symbol" aria-roledescription="point" transform="translate(210,0)" d="M3.873,0A3.873,3.873,0,1,1,-3.873,0A3.873,3.873,0,1,1,3.873,0" fill="#8b5cf6" stroke-width="2" opacity="0.7"/><path aria-label="Length: 4K; Accuracy (%): 100; system: RMT fine-tune" role="graphics-symbol" aria-roledescription="point" transform="translate(70,0)" d="M3.873,0A3.873,3.873,0,1,1,-3.873,0A3.873,3.873,0,1,1,3.873,0" fill="#64748b" stroke-width="2" opacity="0.7"/><path aria-label="Length: 8K; Accuracy (%): 100; system: RMT fine-tune" role="graphics-symbol" aria-roledescription="point" transform="translate(210,0)" d="M3.873,0A3.873,3.873,0,1,1,-3.873,0A3.873,3.873,0,1,1,3.873,0" fill="#64748b" stroke-width="2" opacity="0.7"/><path aria-label="Length: 4K; Accuracy (%): 95; system: GPT-4" role="graphics-symbol" aria-roledescription="point" transform="translate(70,15.000000000000014)" d="M3.873,0A3.873,3.873,0,1,1,-3.873,0A3.873,3.873,0,1,1,3.873,0" fill="#2563eb" stroke-width="2" opacity="0.7"/><path aria-label="Length: 8K; Accuracy (%): 93; system: GPT-4" role="graphics-symbol" aria-roledescription="point" transform="translate(210,20.999999999999986)" d="M3.873,0A3.873,3.873,0,1,1,-3.873,0A3.873,3.873,0,1,1,3.873,0" fill="#2563eb" stroke-width="2" opacity="0.7"/><path aria-label="Length: 4K; Accuracy (%): 58; system: ChatQA + RAG" role="graphics-symbol" aria-roledescription="point" transform="translate(70,126.00000000000001)" d="M3.873,0A3.873,3.873,0,1,1,-3.873,0A3.873,3.873,0,1,1,3.873,0" fill="#94a3b8" stroke-width="2" opacity="0.7"/><path aria-label="Length: 8K; Accuracy (%): 58; system: ChatQA + RAG" role="graphics-symbol" aria-roledescription="point" transform="translate(210,126.00000000000001)" d="M3.873,0A3.873,3.873,0,1,1,-3.873,0A3.873,3.873,0,1,1,3.873,0" fill="#94a3b8" stroke-width="2" opacity="0.7"/></g></g><path class="foreground" aria-hidden="true" d="" display="none"/></g><g transform="translate(302,0)"><path class="background" aria-hidden="true" d="M0.5,0.5h280v300h-280Z" stroke="#ddd"/><g><g class="mark-group role-axis" aria-hidden="true"><g transform="translate(0.5,0.5)"><path class="background" aria-hidden="true" d="M0,0h0v0h0Z" pointer-events="none"/><g><g class="mark-rule role-axis-grid" pointer-events="none"><line transform="translate(0,300)" x2="280" y2="0" stroke="#eef2f7" stroke-width="1" opacity="1"/><line transform="translate(0,240)" x2="280" y2="0" stroke="#eef2f7" stroke-width="1" opacity="1"/><line transform="translate(0,180)" x2="280" y2="0" stroke="#eef2f7" stroke-width="1" opacity="1"/><line transform="translate(0,120)" x2="280" y2="0" stroke="#eef2f7" stroke-width="1" opacity="1"/><line transform="translate(0,60)" x2="280" y2="0" stroke="#eef2f7" stroke-width="1" opacity="1"/><line transform="translate(0,0)" x2="280" y2="0" stroke="#eef2f7" stroke-width="1" opacity="1"/></g></g><path class="foreground" aria-hidden="true" d="" pointer-events="none" display="none"/></g></g><g class="mark-group role-scope child_layer_0_pathgroup" role="graphics-object" aria-roledescription="group mark container"><g transform="translate(0,0)"><path class="background" aria-hidden="true" d="M0,0h280v300h-280Z"/><g><g class="mark-line role-mark child_layer_0_marks" role="graphics-object" aria-roledescription="line mark container"><path aria-label="Length: 4K; Accuracy (%): 60; system: CSM (ours, n=30)" role="graphics-symbol" aria-roledescription="line mark" d="M70,120L210,140.1" stroke="#0e7c66" stroke-width="2.8"/></g></g><path class="foreground" aria-hidden="true" d="" display="none"/></g><g transform="translate(0,0)"><path class="background" aria-hidden="true" d="M0,0h280v300h-280Z"/><g><g class="mark-line role-mark child_layer_0_marks" role="graphics-object" aria-roledescription="line mark container"><path aria-label="Length: 4K; Accuracy (%): 100; system: ARMT fine-tune" role="graphics-symbol" aria-roledescription="line mark" d="M70,0L210,0" stroke="#f59e0b" stroke-width="2.8"/></g></g><path class="foreground" aria-hidden="true" d="" display="none"/></g><g transform="translate(0,0)"><path class="background" aria-hidden="true" d="M0,0h280v300h-280Z"/><g><g class="mark-line role-mark child_layer_0_marks" role="graphics-object" aria-roledescription="line mark container"><path aria-label="Length: 4K; Accuracy (%): 98; system: Mamba fine-tune" role="graphics-symbol" aria-roledescription="line mark" d="M70,6L210,6" stroke="#8b5cf6" stroke-width="2.8"/></g></g><path class="foreground" aria-hidden="true" d="" display="none"/></g><g transform="translate(0,0)"><path class="background" aria-hidden="true" d="M0,0h280v300h-280Z"/><g><g class="mark-line role-mark child_layer_0_marks" role="graphics-object" aria-roledescription="line mark container"><path aria-label="Length: 4K; Accuracy (%): 98; system: RMT fine-tune" role="graphics-symbol" aria-roledescription="line mark" d="M70,6L210,9" stroke="#64748b" stroke-width="2.8"/></g></g><path class="foreground" aria-hidden="true" d="" display="none"/></g><g transform="translate(0,0)"><path class="background" aria-hidden="true" d="M0,0h280v300h-280Z"/><g><g class="mark-line role-mark child_layer_0_marks" role="graphics-object" aria-roledescription="line mark container"><path aria-label="Length: 4K; Accuracy (%): 68; system: GPT-4" role="graphics-symbol" aria-roledescription="line mark" d="M70,96L210,105" stroke="#2563eb" stroke-width="2.8"/></g></g><path class="foreground" aria-hidden="true" d="" display="none"/></g><g transform="translate(0,0)"><path class="background" aria-hidden="true" d="M0,0h280v300h-280Z"/><g><g class="mark-line role-mark child_layer_0_marks" role="graphics-object" aria-roledescription="line mark container"><path aria-label="Length: 4K; Accuracy (%): 19; system: ChatQA + RAG" role="graphics-symbol" aria-roledescription="line mark" d="M70,243L210,258" stroke="#94a3b8" stroke-width="2.8"/></g></g><path class="foreground" aria-hidden="true" d="" display="none"/></g></g><g class="mark-symbol role-mark child_layer_1_marks" role="graphics-object" aria-roledescription="symbol mark container"><path aria-label="Length: 4K; Accuracy (%): 60; system: CSM (ours, n=30)" role="graphics-symbol" aria-roledescription="point" transform="translate(70,120)" d="M3.873,0A3.873,3.873,0,1,1,-3.873,0A3.873,3.873,0,1,1,3.873,0" fill="#0e7c66" stroke-width="2" opacity="0.7"/><path aria-label="Length: 8K; Accuracy (%): 53.3; system: CSM (ours, n=30)" role="graphics-symbol" aria-roledescription="point" transform="translate(210,140.10000000000002)" d="M3.873,0A3.873,3.873,0,1,1,-3.873,0A3.873,3.873,0,1,1,3.873,0" fill="#0e7c66" stroke-width="2" opacity="0.7"/><path aria-label="Length: 4K; Accuracy (%): 100; system: ARMT fine-tune" role="graphics-symbol" aria-roledescription="point" transform="translate(70,0)" d="M3.873,0A3.873,3.873,0,1,1,-3.873,0A3.873,3.873,0,1,1,3.873,0" fill="#f59e0b" stroke-width="2" opacity="0.7"/><path aria-label="Length: 8K; Accuracy (%): 100; system: ARMT fine-tune" role="graphics-symbol" aria-roledescription="point" transform="translate(210,0)" d="M3.873,0A3.873,3.873,0,1,1,-3.873,0A3.873,3.873,0,1,1,3.873,0" fill="#f59e0b" stroke-width="2" opacity="0.7"/><path aria-label="Length: 4K; Accuracy (%): 98; system: Mamba fine-tune" role="graphics-symbol" aria-roledescription="point" transform="translate(70,6.000000000000005)" d="M3.873,0A3.873,3.873,0,1,1,-3.873,0A3.873,3.873,0,1,1,3.873,0" fill="#8b5cf6" stroke-width="2" opacity="0.7"/><path aria-label="Length: 8K; Accuracy (%): 98; system: Mamba fine-tune" role="graphics-symbol" aria-roledescription="point" transform="translate(210,6.000000000000005)" d="M3.873,0A3.873,3.873,0,1,1,-3.873,0A3.873,3.873,0,1,1,3.873,0" fill="#8b5cf6" stroke-width="2" opacity="0.7"/><path aria-label="Length: 4K; Accuracy (%): 98; system: RMT fine-tune" role="graphics-symbol" aria-roledescription="point" transform="translate(70,6.000000000000005)" d="M3.873,0A3.873,3.873,0,1,1,-3.873,0A3.873,3.873,0,1,1,3.873,0" fill="#64748b" stroke-width="2" opacity="0.7"/><path aria-label="Length: 8K; Accuracy (%): 97; system: RMT fine-tune" role="graphics-symbol" aria-roledescription="point" transform="translate(210,9.000000000000007)" d="M3.873,0A3.873,3.873,0,1,1,-3.873,0A3.873,3.873,0,1,1,3.873,0" fill="#64748b" stroke-width="2" opacity="0.7"/><path aria-label="Length: 4K; Accuracy (%): 68; system: GPT-4" role="graphics-symbol" aria-roledescription="point" transform="translate(70,95.99999999999999)" d="M3.873,0A3.873,3.873,0,1,1,-3.873,0A3.873,3.873,0,1,1,3.873,0" fill="#2563eb" stroke-width="2" opacity="0.7"/><path aria-label="Length: 8K; Accuracy (%): 65; system: GPT-4" role="graphics-symbol" aria-roledescription="point" transform="translate(210,105)" d="M3.873,0A3.873,3.873,0,1,1,-3.873,0A3.873,3.873,0,1,1,3.873,0" fill="#2563eb" stroke-width="2" opacity="0.7"/><path aria-label="Length: 4K; Accuracy (%): 19; system: ChatQA + RAG" role="graphics-symbol" aria-roledescription="point" transform="translate(70,243.00000000000003)" d="M3.873,0A3.873,3.873,0,1,1,-3.873,0A3.873,3.873,0,1,1,3.873,0" fill="#94a3b8" stroke-width="2" opacity="0.7"/><path aria-label="Length: 8K; Accuracy (%): 14; system: ChatQA + RAG" role="graphics-symbol" aria-roledescription="point" transform="translate(210,258)" d="M3.873,0A3.873,3.873,0,1,1,-3.873,0A3.873,3.873,0,1,1,3.873,0" fill="#94a3b8" stroke-width="2" opacity="0.7"/></g></g><path class="foreground" aria-hidden="true" d="" display="none"/></g></g><g class="mark-group role-legend" role="graphics-symbol" aria-roledescription="legend" aria-label="Symbol legend for fill color and stroke color with 6 values: CSM (ours, n=30), ARMT fine-tune, Mamba fine-tune, RMT fine-tune, GPT-4, ChatQA + RAG"><g transform="translate(0,347)"><path class="background" aria-hidden="true" d="M0,0h470v26h-470Z" pointer-events="none"/><g><g class="mark-group role-legend-entry"><g transform="translate(0,0)"><path class="background" aria-hidden="true" d="M0,0h0v0h0Z" pointer-events="none"/><g><g class="mark-group role-scope" role="graphics-object" aria-roledescription="group mark container"><g transform="translate(0,0.25)"><path class="background" aria-hidden="true" d="M0,0h157v11.5h-157Z" pointer-events="none" opacity="1"/><g><g class="mark-symbol role-legend-symbol" pointer-events="none"><path transform="translate(6.5,6.5)" d="M-5,0L5,0" fill="#0e7c66" stroke="#0e7c66" stroke-width="3" opacity="0.7"/></g><g class="mark-text role-legend-label" pointer-events="none"><text text-anchor="start" transform="translate(17,9.5)" font-family="sans-serif" font-size="11px" fill="#000" opacity="1">CSM (ours, n=30)</text></g></g><path class="foreground" aria-hidden="true" d="" pointer-events="none" display="none"/></g><g transform="translate(169,0.25)"><path class="background" aria-hidden="true" d="M0,0h140v11.5h-140Z" pointer-events="none" opacity="1"/><g><g class="mark-symbol role-legend-symbol" pointer-events="none"><path transform="translate(6.5,6.5)" d="M-5,0L5,0" fill="#f59e0b" stroke="#f59e0b" stroke-width="3" opacity="0.7"/></g><g class="mark-text role-legend-label" pointer-events="none"><text text-anchor="start" transform="translate(17,9.5)" font-family="sans-serif" font-size="11px" fill="#000" opacity="1">ARMT fine-tune</text></g></g><path class="foreground" aria-hidden="true" d="" pointer-events="none" display="none"/></g><g transform="translate(321,0.25)"><path class="background" aria-hidden="true" d="M0,0h149v11.5h-149Z" pointer-events="none" opacity="1"/><g><g class="mark-symbol role-legend-symbol" pointer-events="none"><path transform="translate(6.5,6.5)" d="M-5,0L5,0" fill="#8b5cf6" stroke="#8b5cf6" stroke-width="3" opacity="0.7"/></g><g class="mark-text role-legend-label" pointer-events="none"><text text-anchor="start" transform="translate(17,9.5)" font-family="sans-serif" font-size="11px" fill="#000" opacity="1">Mamba fine-tune</text></g></g><path class="foreground" aria-hidden="true" d="" pointer-events="none" display="none"/></g><g transform="translate(0,14)"><path class="background" aria-hidden="true" d="M0,0h157v11.5h-157Z" pointer-events="none" opacity="1"/><g><g class="mark-symbol role-legend-symbol" pointer-events="none"><path transform="translate(6.5,6.5)" d="M-5,0L5,0" fill="#64748b" stroke="#64748b" stroke-width="3" opacity="0.7"/></g><g class="mark-text role-legend-label" pointer-events="none"><text text-anchor="start" transform="translate(17,9.5)" font-family="sans-serif" font-size="11px" fill="#000" opacity="1">RMT fine-tune</text></g></g><path class="foreground" aria-hidden="true" d="" pointer-events="none" display="none"/></g><g transform="translate(169,14)"><path class="background" aria-hidden="true" d="M0,0h140v11.5h-140Z" pointer-events="none" opacity="1"/><g><g class="mark-symbol role-legend-symbol" pointer-events="none"><path transform="translate(6.5,6.5)" d="M-5,0L5,0" fill="#2563eb" stroke="#2563eb" stroke-width="3" opacity="0.7"/></g><g class="mark-text role-legend-label" pointer-events="none"><text text-anchor="start" transform="translate(17,9.5)" font-family="sans-serif" font-size="11px" fill="#000" opacity="1">GPT-4</text></g></g><path class="foreground" aria-hidden="true" d="" pointer-events="none" display="none"/></g><g transform="translate(321,14)"><path class="background" aria-hidden="true" d="M0,0h149v11.5h-149Z" pointer-events="none" opacity="1"/><g><g class="mark-symbol role-legend-symbol" pointer-events="none"><path transform="translate(6.5,6.5)" d="M-5,0L5,0" fill="#94a3b8" stroke="#94a3b8" stroke-width="3" opacity="0.7"/></g><g class="mark-text role-legend-label" pointer-events="none"><text text-anchor="start" transform="translate(17,9.5)" font-family="sans-serif" font-size="11px" fill="#000" opacity="1">ChatQA + RAG</text></g></g><path class="foreground" aria-hidden="true" d="" pointer-events="none" display="none"/></g></g></g><path class="foreground" aria-hidden="true" d="" pointer-events="none" display="none"/></g></g></g><path class="foreground" aria-hidden="true" d="" pointer-events="none" display="none"/></g></g><g class="mark-group role-title"><g transform="translate(-51,-61)"><path class="background" aria-hidden="true" d="M0,0h0v0h0Z" pointer-events="none"/><g><g class="mark-text role-title-text" role="graphics-symbol" aria-roledescription="title" aria-label="Title text 'BABILong historical shared slice'" pointer-events="none"><text text-anchor="start" transform="translate(0,12)" font-family="sans-serif" font-size="15px" font-weight="bold" fill="#000" opacity="1">BABILong historical shared slice</text></g><g class="mark-text role-title-subtitle" role="graphics-symbol" aria-roledescription="subtitle" aria-label="Subtitle text 'QA1/QA2 at 4K and 8K only; CSM uses 30 rows/cell, comparators are from the v0 HF leaderboard'" pointer-events="none"><text text-anchor="start" transform="translate(0,27)" font-family="sans-serif" font-size="11px" fill="#6b7280" opacity="1">QA1/QA2 at 4K and 8K only; CSM uses 30 rows/cell, comparators are from the v0 HF leaderboard</text></g></g><path class="foreground" aria-hidden="true" d="" pointer-events="none" display="none"/></g></g></g><path class="foreground" aria-hidden="true" d="" display="none"/></g></g></g></svg>