<svg xmlns="http://www.w3.org/2000/svg" xmlns:xlink="http://www.w3.org/1999/xlink" version="1.1" class="marks" width="686" height="457" viewBox="0 0 686 457"><rect width="686" height="457" fill="white"/><g fill="none" stroke-miterlimit="10" transform="translate(58,47)"><g class="mark-group role-frame root" role="graphics-object" aria-roledescription="group mark container"><g transform="translate(0,0)"><path class="background" aria-hidden="true" d="M0.5,0.5h620v330h-620Z" stroke="#ddd"/><g><g class="mark-group role-axis" aria-hidden="true"><g transform="translate(0.5,0.5)"><path class="background" aria-hidden="true" d="M0,0h0v0h0Z" pointer-events="none"/><g><g class="mark-rule role-axis-grid" pointer-events="none"><line transform="translate(0,330)" x2="620" y2="0" stroke="#eef2f7" stroke-width="1" opacity="1"/><line transform="translate(0,264)" x2="620" y2="0" stroke="#eef2f7" stroke-width="1" opacity="1"/><line transform="translate(0,198)" x2="620" y2="0" stroke="#eef2f7" stroke-width="1" opacity="1"/><line transform="translate(0,132)" x2="620" y2="0" stroke="#eef2f7" stroke-width="1" opacity="1"/><line transform="translate(0,66)" x2="620" y2="0" stroke="#eef2f7" stroke-width="1" opacity="1"/><line transform="translate(0,0)" x2="620" y2="0" stroke="#eef2f7" stroke-width="1" opacity="1"/></g></g><path class="foreground" aria-hidden="true" d="" pointer-events="none" display="none"/></g></g><g class="mark-group role-axis" role="graphics-symbol" aria-roledescription="axis" aria-label="X-axis titled 'Context length' for a discrete scale with 6 values: 4K, 8K, 32K, 128K, 1M, 10M"><g transform="translate(0.5,330.5)"><path class="background" aria-hidden="true" d="M0,0h0v0h0Z" pointer-events="none"/><g><g class="mark-text role-axis-label" pointer-events="none"><text text-anchor="middle" transform="translate(51.666666666666686,11)" font-family="sans-serif" font-size="12px" fill="#000" opacity="1">4K</text><text text-anchor="middle" transform="translate(155,11)" font-family="sans-serif" font-size="12px" fill="#000" opacity="1">8K</text><text text-anchor="middle" transform="translate(258.33333333333337,11)" font-family="sans-serif" font-size="12px" fill="#000" opacity="1">32K</text><text text-anchor="middle" transform="translate(361.6666666666667,11)" font-family="sans-serif" font-size="12px" fill="#000" opacity="1">128K</text><text text-anchor="middle" transform="translate(465,11)" font-family="sans-serif" font-size="12px" fill="#000" opacity="1">1M</text><text text-anchor="middle" transform="translate(568.3333333333333,11)" font-family="sans-serif" font-size="12px" fill="#000" opacity="1">10M</text></g><g class="mark-text role-axis-title" pointer-events="none"><text text-anchor="middle" transform="translate(310,26)" font-family="sans-serif" font-size="12px" font-weight="bold" fill="#000" opacity="1">Context length</text></g></g><path class="foreground" aria-hidden="true" d="" pointer-events="none" display="none"/></g></g><g class="mark-group role-axis" role="graphics-symbol" aria-roledescription="axis" aria-label="Y-axis titled 'Accuracy (%)' for a linear scale with values from 0 to 100"><g transform="translate(0.5,0.5)"><path class="background" aria-hidden="true" d="M0,0h0v0h0Z" pointer-events="none"/><g><g class="mark-rule role-axis-tick" pointer-events="none"><line transform="translate(0,330)" x2="-5" y2="0" stroke="#888" stroke-width="1" opacity="1"/><line transform="translate(0,264)" x2="-5" y2="0" stroke="#888" stroke-width="1" opacity="1"/><line transform="translate(0,198)" x2="-5" y2="0" stroke="#888" stroke-width="1" opacity="1"/><line transform="translate(0,132)" x2="-5" y2="0" stroke="#888" stroke-width="1" opacity="1"/><line transform="translate(0,66)" x2="-5" y2="0" stroke="#888" stroke-width="1" opacity="1"/><line transform="translate(0,0)" x2="-5" y2="0" stroke="#888" stroke-width="1" opacity="1"/></g><g class="mark-text role-axis-label" pointer-events="none"><text text-anchor="end" transform="translate(-7,333)" font-family="sans-serif" font-size="11px" fill="#000" opacity="1">0</text><text text-anchor="end" transform="translate(-7,267)" font-family="sans-serif" font-size="11px" fill="#000" opacity="1">20</text><text text-anchor="end" transform="translate(-7,201)" font-family="sans-serif" font-size="11px" fill="#000" opacity="1">40</text><text text-anchor="end" transform="translate(-7,135)" font-family="sans-serif" font-size="11px" fill="#000" opacity="1">60</text><text text-anchor="end" transform="translate(-7,68.99999999999999)" font-family="sans-serif" font-size="11px" fill="#000" opacity="1">80</text><text text-anchor="end" transform="translate(-7,3)" font-family="sans-serif" font-size="11px" fill="#000" opacity="1">100</text></g><g class="mark-rule role-axis-domain" pointer-events="none"><line transform="translate(0,330)" x2="0" y2="-330" stroke="#888" stroke-width="1" opacity="1"/></g><g class="mark-text role-axis-title" pointer-events="none"><text text-anchor="middle" transform="translate(-37,165) rotate(-90) translate(0,-3)" font-family="sans-serif" font-size="12px" font-weight="bold" fill="#000" opacity="1">Accuracy (%)</text></g></g><path class="foreground" aria-hidden="true" d="" pointer-events="none" display="none"/></g></g><g class="mark-group role-scope layer_0_pathgroup" role="graphics-object" aria-roledescription="group mark container"><g transform="translate(0,0)"><path class="background" aria-hidden="true" d="M0,0h620v330h-620Z"/><g><g class="mark-line role-mark layer_0_marks" role="graphics-object" aria-roledescription="line mark container"><path aria-label="Context length: 4K; Accuracy (%): 98.1; system: ARMT fine-tune" role="graphics-symbol" aria-roledescription="line mark" d="M51.667,6.27L155,5.94L258.333,6.6L361.667,10.23L465,21.78L568.333,77.22" stroke="#0e7c66" stroke-width="2.8"/></g></g><path class="foreground" aria-hidden="true" d="" display="none"/></g><g transform="translate(0,0)"><path class="background" aria-hidden="true" d="M0,0h620v330h-620Z"/><g><g class="mark-line role-mark layer_0_marks" role="graphics-object" aria-roledescription="line mark container"><path aria-label="Context length: 4K; Accuracy (%): 98.7; system: Mamba fine-tune" role="graphics-symbol" aria-roledescription="line mark" d="M51.667,4.29L155,4.95L258.333,6.27L361.667,24.75" stroke="#f59e0b" stroke-width="2.8"/></g></g><path class="foreground" aria-hidden="true" d="" display="none"/></g><g transform="translate(0,0)"><path class="background" aria-hidden="true" d="M0,0h620v330h-620Z"/><g><g class="mark-line role-mark layer_0_marks" role="graphics-object" aria-roledescription="line mark container"><path aria-label="Context length: 4K; Accuracy (%): 92.32; system: RMT fine-tune" role="graphics-symbol" aria-roledescription="line mark" d="M51.667,25.344L155,33.33L258.333,72.996L361.667,136.884L465,188.628L568.333,218.526" stroke="#8b5cf6" stroke-width="2.8"/></g></g><path class="foreground" aria-hidden="true" d="" display="none"/></g><g transform="translate(0,0)"><path class="background" aria-hidden="true" d="M0,0h620v330h-620Z"/><g><g class="mark-line role-mark layer_0_marks" role="graphics-object" aria-roledescription="line mark container"><path aria-label="Context length: 4K; Accuracy (%): 74; system: GPT-4" role="graphics-symbol" aria-roledescription="line mark" d="M51.667,85.8L155,95.7L258.333,155.1L361.667,211.2" stroke="#2563eb" stroke-width="2.8"/></g></g><path class="foreground" aria-hidden="true" d="" display="none"/></g><g transform="translate(0,0)"><path class="background" aria-hidden="true" d="M0,0h620v330h-620Z"/><g><g class="mark-line role-mark layer_0_marks" role="graphics-object" aria-roledescription="line mark container"><path aria-label="Context length: 4K; Accuracy (%): 74; system: Llama 3.1 70B" role="graphics-symbol" aria-roledescription="line mark" d="M51.667,85.8L155,99L258.333,135.3L361.667,181.5" stroke="#64748b" stroke-width="2.8"/></g></g><path class="foreground" aria-hidden="true" d="" display="none"/></g><g transform="translate(0,0)"><path class="background" aria-hidden="true" d="M0,0h620v330h-620Z"/><g><g class="mark-line role-mark layer_0_marks" role="graphics-object" aria-roledescription="line mark container"><path aria-label="Context length: 4K; Accuracy (%): 46; system: ChatQA + RAG" role="graphics-symbol" aria-roledescription="line mark" d="M51.667,178.2L155,181.5L258.333,184.8L361.667,181.5L465,201.3L568.333,207.9" stroke="#94a3b8" stroke-width="2.8"/></g></g><path class="foreground" aria-hidden="true" d="" display="none"/></g></g><g class="mark-symbol role-mark layer_1_marks" role="graphics-object" aria-roledescription="symbol mark container"><path aria-label="Context length: 4K; Accuracy (%): 98.1; system: ARMT fine-tune" role="graphics-symbol" aria-roledescription="point" transform="translate(51.666666666666686,6.270000000000006)" d="M3.708,0A3.708,3.708,0,1,1,-3.708,0A3.708,3.708,0,1,1,3.708,0" fill="#0e7c66" stroke-width="2" opacity="0.7"/><path aria-label="Context length: 8K; Accuracy (%): 98.2; system: ARMT fine-tune" role="graphics-symbol" aria-roledescription="point" transform="translate(155,5.940000000000005)" d="M3.708,0A3.708,3.708,0,1,1,-3.708,0A3.708,3.708,0,1,1,3.708,0" fill="#0e7c66" stroke-width="2" opacity="0.7"/><path aria-label="Context length: 32K; Accuracy (%): 98; system: ARMT fine-tune" role="graphics-symbol" aria-roledescription="point" transform="translate(258.33333333333337,6.600000000000006)" d="M3.708,0A3.708,3.708,0,1,1,-3.708,0A3.708,3.708,0,1,1,3.708,0" fill="#0e7c66" stroke-width="2" opacity="0.7"/><path aria-label="Context length: 128K; Accuracy (%): 96.9; system: ARMT fine-tune" role="graphics-symbol" aria-roledescription="point" transform="translate(361.6666666666667,10.229999999999972)" d="M3.708,0A3.708,3.708,0,1,1,-3.708,0A3.708,3.708,0,1,1,3.708,0" fill="#0e7c66" stroke-width="2" opacity="0.7"/><path aria-label="Context length: 1M; Accuracy (%): 93.4; system: ARMT fine-tune" role="graphics-symbol" aria-roledescription="point" transform="translate(465,21.779999999999983)" d="M3.708,0A3.708,3.708,0,1,1,-3.708,0A3.708,3.708,0,1,1,3.708,0" fill="#0e7c66" stroke-width="2" opacity="0.7"/><path aria-label="Context length: 10M; Accuracy (%): 76.6; system: ARMT fine-tune" role="graphics-symbol" aria-roledescription="point" transform="translate(568.3333333333333,77.22000000000003)" d="M3.708,0A3.708,3.708,0,1,1,-3.708,0A3.708,3.708,0,1,1,3.708,0" fill="#0e7c66" stroke-width="2" opacity="0.7"/><path aria-label="Context length: 4K; Accuracy (%): 98.7; system: Mamba fine-tune" role="graphics-symbol" aria-roledescription="point" transform="translate(51.666666666666686,4.290000000000004)" d="M3.708,0A3.708,3.708,0,1,1,-3.708,0A3.708,3.708,0,1,1,3.708,0" fill="#f59e0b" stroke-width="2" opacity="0.7"/><path aria-label="Context length: 8K; Accuracy (%): 98.5; system: Mamba fine-tune" role="graphics-symbol" aria-roledescription="point" transform="translate(155,4.950000000000005)" d="M3.708,0A3.708,3.708,0,1,1,-3.708,0A3.708,3.708,0,1,1,3.708,0" fill="#f59e0b" stroke-width="2" opacity="0.7"/><path aria-label="Context length: 32K; Accuracy (%): 98.1; system: Mamba fine-tune" role="graphics-symbol" aria-roledescription="point" transform="translate(258.33333333333337,6.270000000000006)" d="M3.708,0A3.708,3.708,0,1,1,-3.708,0A3.708,3.708,0,1,1,3.708,0" fill="#f59e0b" stroke-width="2" opacity="0.7"/><path aria-label="Context length: 128K; Accuracy (%): 92.5; system: Mamba fine-tune" role="graphics-symbol" aria-roledescription="point" transform="translate(361.6666666666667,24.749999999999986)" d="M3.708,0A3.708,3.708,0,1,1,-3.708,0A3.708,3.708,0,1,1,3.708,0" fill="#f59e0b" stroke-width="2" opacity="0.7"/><path aria-label="Context length: 4K; Accuracy (%): 92.32; system: RMT fine-tune" role="graphics-symbol" aria-roledescription="point" transform="translate(51.666666666666686,25.34400000000003)" d="M3.708,0A3.708,3.708,0,1,1,-3.708,0A3.708,3.708,0,1,1,3.708,0" fill="#8b5cf6" stroke-width="2" opacity="0.7"/><path aria-label="Context length: 8K; Accuracy (%): 89.9; system: RMT fine-tune" role="graphics-symbol" aria-roledescription="point" transform="translate(155,33.32999999999999)" d="M3.708,0A3.708,3.708,0,1,1,-3.708,0A3.708,3.708,0,1,1,3.708,0" fill="#8b5cf6" stroke-width="2" opacity="0.7"/><path aria-label="Context length: 32K; Accuracy (%): 77.88; system: RMT fine-tune" role="graphics-symbol" aria-roledescription="point" transform="translate(258.33333333333337,72.99600000000002)" d="M3.708,0A3.708,3.708,0,1,1,-3.708,0A3.708,3.708,0,1,1,3.708,0" fill="#8b5cf6" stroke-width="2" opacity="0.7"/><path aria-label="Context length: 128K; Accuracy (%): 58.52; system: RMT fine-tune" role="graphics-symbol" aria-roledescription="point" transform="translate(361.6666666666667,136.884)" d="M3.708,0A3.708,3.708,0,1,1,-3.708,0A3.708,3.708,0,1,1,3.708,0" fill="#8b5cf6" stroke-width="2" opacity="0.7"/><path aria-label="Context length: 1M; Accuracy (%): 42.84; system: RMT fine-tune" role="graphics-symbol" aria-roledescription="point" transform="translate(465,188.62799999999996)" d="M3.708,0A3.708,3.708,0,1,1,-3.708,0A3.708,3.708,0,1,1,3.708,0" fill="#8b5cf6" stroke-width="2" opacity="0.7"/><path aria-label="Context length: 10M; Accuracy (%): 33.78; system: RMT fine-tune" role="graphics-symbol" aria-roledescription="point" transform="translate(568.3333333333333,218.526)" d="M3.708,0A3.708,3.708,0,1,1,-3.708,0A3.708,3.708,0,1,1,3.708,0" fill="#8b5cf6" stroke-width="2" opacity="0.7"/><path aria-label="Context length: 4K; Accuracy (%): 74; system: GPT-4" role="graphics-symbol" aria-roledescription="point" transform="translate(51.666666666666686,85.8)" d="M3.708,0A3.708,3.708,0,1,1,-3.708,0A3.708,3.708,0,1,1,3.708,0" fill="#2563eb" stroke-width="2" opacity="0.7"/><path aria-label="Context length: 8K; Accuracy (%): 71; system: GPT-4" role="graphics-symbol" aria-roledescription="point" transform="translate(155,95.70000000000002)" d="M3.708,0A3.708,3.708,0,1,1,-3.708,0A3.708,3.708,0,1,1,3.708,0" fill="#2563eb" stroke-width="2" opacity="0.7"/><path aria-label="Context length: 32K; Accuracy (%): 53; system: GPT-4" role="graphics-symbol" aria-roledescription="point" transform="translate(258.33333333333337,155.1)" d="M3.708,0A3.708,3.708,0,1,1,-3.708,0A3.708,3.708,0,1,1,3.708,0" fill="#2563eb" stroke-width="2" opacity="0.7"/><path aria-label="Context length: 128K; Accuracy (%): 36; system: GPT-4" role="graphics-symbol" aria-roledescription="point" transform="translate(361.6666666666667,211.20000000000002)" d="M3.708,0A3.708,3.708,0,1,1,-3.708,0A3.708,3.708,0,1,1,3.708,0" fill="#2563eb" stroke-width="2" opacity="0.7"/><path aria-label="Context length: 4K; Accuracy (%): 74; system: Llama 3.1 70B" role="graphics-symbol" aria-roledescription="point" transform="translate(51.666666666666686,85.8)" d="M3.708,0A3.708,3.708,0,1,1,-3.708,0A3.708,3.708,0,1,1,3.708,0" fill="#64748b" stroke-width="2" opacity="0.7"/><path aria-label="Context length: 8K; Accuracy (%): 70; system: Llama 3.1 70B" role="graphics-symbol" aria-roledescription="point" transform="translate(155,99.00000000000001)" d="M3.708,0A3.708,3.708,0,1,1,-3.708,0A3.708,3.708,0,1,1,3.708,0" fill="#64748b" stroke-width="2" opacity="0.7"/><path aria-label="Context length: 32K; Accuracy (%): 59; system: Llama 3.1 70B" role="graphics-symbol" aria-roledescription="point" transform="translate(258.33333333333337,135.3)" d="M3.708,0A3.708,3.708,0,1,1,-3.708,0A3.708,3.708,0,1,1,3.708,0" fill="#64748b" stroke-width="2" opacity="0.7"/><path aria-label="Context length: 128K; Accuracy (%): 45; system: Llama 3.1 70B" role="graphics-symbol" aria-roledescription="point" transform="translate(361.6666666666667,181.50000000000003)" d="M3.708,0A3.708,3.708,0,1,1,-3.708,0A3.708,3.708,0,1,1,3.708,0" fill="#64748b" stroke-width="2" opacity="0.7"/><path aria-label="Context length: 4K; Accuracy (%): 46; system: ChatQA + RAG" role="graphics-symbol" aria-roledescription="point" transform="translate(51.666666666666686,178.20000000000002)" d="M3.708,0A3.708,3.708,0,1,1,-3.708,0A3.708,3.708,0,1,1,3.708,0" fill="#94a3b8" stroke-width="2" opacity="0.7"/><path aria-label="Context length: 8K; Accuracy (%): 45; system: ChatQA + RAG" role="graphics-symbol" aria-roledescription="point" transform="translate(155,181.50000000000003)" d="M3.708,0A3.708,3.708,0,1,1,-3.708,0A3.708,3.708,0,1,1,3.708,0" fill="#94a3b8" stroke-width="2" opacity="0.7"/><path aria-label="Context length: 32K; Accuracy (%): 44; system: ChatQA + RAG" role="graphics-symbol" aria-roledescription="point" transform="translate(258.33333333333337,184.8)" d="M3.708,0A3.708,3.708,0,1,1,-3.708,0A3.708,3.708,0,1,1,3.708,0" fill="#94a3b8" stroke-width="2" opacity="0.7"/><path aria-label="Context length: 128K; Accuracy (%): 45; system: ChatQA + RAG" role="graphics-symbol" aria-roledescription="point" transform="translate(361.6666666666667,181.50000000000003)" d="M3.708,0A3.708,3.708,0,1,1,-3.708,0A3.708,3.708,0,1,1,3.708,0" fill="#94a3b8" stroke-width="2" opacity="0.7"/><path aria-label="Context length: 1M; Accuracy (%): 39; system: ChatQA + RAG" role="graphics-symbol" aria-roledescription="point" transform="translate(465,201.29999999999998)" d="M3.708,0A3.708,3.708,0,1,1,-3.708,0A3.708,3.708,0,1,1,3.708,0" fill="#94a3b8" stroke-width="2" opacity="0.7"/><path aria-label="Context length: 10M; Accuracy (%): 37; system: ChatQA + RAG" role="graphics-symbol" aria-roledescription="point" transform="translate(568.3333333333333,207.9)" d="M3.708,0A3.708,3.708,0,1,1,-3.708,0A3.708,3.708,0,1,1,3.708,0" fill="#94a3b8" stroke-width="2" opacity="0.7"/></g><g class="mark-group role-legend" role="graphics-symbol" aria-roledescription="legend" aria-label="Symbol legend for fill color and stroke color with 6 values: ARMT fine-tune, Mamba fine-tune, RMT fine-tune, GPT-4, Llama 3.1 70B, ChatQA + RAG"><g transform="translate(0,376)"><path class="background" aria-hidden="true" d="M0,0h444v26h-444Z" pointer-events="none"/><g><g class="mark-group role-legend-entry"><g transform="translate(0,0)"><path class="background" aria-hidden="true" d="M0,0h0v0h0Z" pointer-events="none"/><g><g class="mark-group role-scope" role="graphics-object" aria-roledescription="group mark container"><g transform="translate(0,0.25)"><path class="background" aria-hidden="true" d="M0,0h140v11.5h-140Z" pointer-events="none" opacity="1"/><g><g class="mark-symbol role-legend-symbol" pointer-events="none"><path transform="translate(6.5,6.5)" d="M-5,0L5,0" fill="#0e7c66" stroke="#0e7c66" stroke-width="3" opacity="0.7"/></g><g class="mark-text role-legend-label" pointer-events="none"><text text-anchor="start" transform="translate(17,9.5)" font-family="sans-serif" font-size="11px" fill="#000" opacity="1">ARMT fine-tune</text></g></g><path class="foreground" aria-hidden="true" d="" pointer-events="none" display="none"/></g><g transform="translate(152,0.25)"><path class="background" aria-hidden="true" d="M0,0h149v11.5h-149Z" pointer-events="none" opacity="1"/><g><g class="mark-symbol role-legend-symbol" pointer-events="none"><path transform="translate(6.5,6.5)" d="M-5,0L5,0" fill="#f59e0b" stroke="#f59e0b" stroke-width="3" opacity="0.7"/></g><g class="mark-text role-legend-label" pointer-events="none"><text text-anchor="start" transform="translate(17,9.5)" font-family="sans-serif" font-size="11px" fill="#000" opacity="1">Mamba fine-tune</text></g></g><path class="foreground" aria-hidden="true" d="" pointer-events="none" display="none"/></g><g transform="translate(313,0.25)"><path class="background" aria-hidden="true" d="M0,0h131v11.5h-131Z" pointer-events="none" opacity="1"/><g><g class="mark-symbol role-legend-symbol" pointer-events="none"><path transform="translate(6.5,6.5)" d="M-5,0L5,0" fill="#8b5cf6" stroke="#8b5cf6" stroke-width="3" opacity="0.7"/></g><g class="mark-text role-legend-label" pointer-events="none"><text text-anchor="start" transform="translate(17,9.5)" font-family="sans-serif" font-size="11px" fill="#000" opacity="1">RMT fine-tune</text></g></g><path class="foreground" aria-hidden="true" d="" pointer-events="none" display="none"/></g><g transform="translate(0,14)"><path class="background" aria-hidden="true" d="M0,0h140v11.5h-140Z" pointer-events="none" opacity="1"/><g><g class="mark-symbol role-legend-symbol" pointer-events="none"><path transform="translate(6.5,6.5)" d="M-5,0L5,0" fill="#2563eb" stroke="#2563eb" stroke-width="3" opacity="0.7"/></g><g class="mark-text role-legend-label" pointer-events="none"><text text-anchor="start" transform="translate(17,9.5)" font-family="sans-serif" font-size="11px" fill="#000" opacity="1">GPT-4</text></g></g><path class="foreground" aria-hidden="true" d="" pointer-events="none" display="none"/></g><g transform="translate(152,14)"><path class="background" aria-hidden="true" d="M0,0h149v11.5h-149Z" pointer-events="none" opacity="1"/><g><g class="mark-symbol role-legend-symbol" pointer-events="none"><path transform="translate(6.5,6.5)" d="M-5,0L5,0" fill="#64748b" stroke="#64748b" stroke-width="3" opacity="0.7"/></g><g class="mark-text role-legend-label" pointer-events="none"><text text-anchor="start" transform="translate(17,9.5)" font-family="sans-serif" font-size="11px" fill="#000" opacity="1">Llama 3.1 70B</text></g></g><path class="foreground" aria-hidden="true" d="" pointer-events="none" display="none"/></g><g transform="translate(313,14)"><path class="background" aria-hidden="true" d="M0,0h131v11.5h-131Z" pointer-events="none" opacity="1"/><g><g class="mark-symbol role-legend-symbol" pointer-events="none"><path transform="translate(6.5,6.5)" d="M-5,0L5,0" fill="#94a3b8" stroke="#94a3b8" stroke-width="3" opacity="0.7"/></g><g class="mark-text role-legend-label" pointer-events="none"><text text-anchor="start" transform="translate(17,9.5)" font-family="sans-serif" font-size="11px" fill="#000" opacity="1">ChatQA + RAG</text></g></g><path class="foreground" aria-hidden="true" d="" pointer-events="none" display="none"/></g></g></g><path class="foreground" aria-hidden="true" d="" pointer-events="none" display="none"/></g></g></g><path class="foreground" aria-hidden="true" d="" pointer-events="none" display="none"/></g></g><g class="mark-group role-title"><g transform="translate(-50,-39)"><path class="background" aria-hidden="true" d="M0,0h0v0h0Z" pointer-events="none"/><g><g class="mark-text role-title-text" role="graphics-symbol" aria-roledescription="title" aria-label="Title text 'BABILong v0 historical leaderboard'" pointer-events="none"><text text-anchor="start" transform="translate(0,12)" font-family="sans-serif" font-size="15px" font-weight="bold" fill="#000" opacity="1">BABILong v0 historical leaderboard</text></g><g class="mark-text role-title-subtitle" role="graphics-symbol" aria-roledescription="subtitle" aria-label="Subtitle text 'avg(QA1-QA5), HF Space snapshot; not a current 2026 frontier-model board'" pointer-events="none"><text text-anchor="start" transform="translate(0,27)" font-family="sans-serif" font-size="11px" fill="#6b7280" opacity="1">avg(QA1-QA5), HF Space snapshot; not a current 2026 frontier-model board</text></g></g><path class="foreground" aria-hidden="true" d="" pointer-events="none" display="none"/></g></g></g><path class="foreground" aria-hidden="true" d="" display="none"/></g></g></g></svg>