<svg xmlns="http://www.w3.org/2000/svg" xmlns:xlink="http://www.w3.org/1999/xlink" version="1.1" class="marks" width="694" height="376" viewBox="0 0 694 376"><rect width="694" height="376" fill="white"/><g fill="none" stroke-miterlimit="10" transform="translate(156,38)"><g class="mark-group role-frame root" role="graphics-object" aria-roledescription="group mark container"><g transform="translate(0,0)"><path class="background" aria-hidden="true" d="M0.5,0.5h460v300h-460Z" stroke="#ddd"/><g><g class="mark-group role-axis" aria-hidden="true"><g transform="translate(0.5,300.5)"><path class="background" aria-hidden="true" d="M0,0h0v0h0Z" pointer-events="none"/><g><g class="mark-rule role-axis-grid" pointer-events="none"><line transform="translate(0,0)" x2="0" y2="-300" stroke="#ddd" stroke-width="1" opacity="1"/><line transform="translate(38,0)" x2="0" y2="-300" stroke="#ddd" stroke-width="1" opacity="1"/><line transform="translate(77,0)" x2="0" y2="-300" stroke="#ddd" stroke-width="1" opacity="1"/><line transform="translate(115,0)" x2="0" y2="-300" stroke="#ddd" stroke-width="1" opacity="1"/><line transform="translate(153,0)" x2="0" y2="-300" stroke="#ddd" stroke-width="1" opacity="1"/><line transform="translate(192,0)" x2="0" y2="-300" stroke="#ddd" stroke-width="1" opacity="1"/><line transform="translate(230,0)" x2="0" y2="-300" stroke="#ddd" stroke-width="1" opacity="1"/><line transform="translate(268,0)" x2="0" y2="-300" stroke="#ddd" stroke-width="1" opacity="1"/><line transform="translate(307,0)" x2="0" y2="-300" stroke="#ddd" stroke-width="1" opacity="1"/><line transform="translate(345,0)" x2="0" y2="-300" stroke="#ddd" stroke-width="1" opacity="1"/><line transform="translate(383,0)" x2="0" y2="-300" stroke="#ddd" stroke-width="1" opacity="1"/><line transform="translate(422,0)" x2="0" y2="-300" stroke="#ddd" stroke-width="1" opacity="1"/><line transform="translate(460,0)" x2="0" y2="-300" stroke="#ddd" stroke-width="1" opacity="1"/></g></g><path class="foreground" aria-hidden="true" d="" pointer-events="none" display="none"/></g></g><g class="mark-group role-axis" role="graphics-symbol" aria-roledescription="axis" aria-label="X-axis titled 'Mean citation F1' for a linear scale with values from 0.0 to 0.6"><g transform="translate(0.5,300.5)"><path class="background" aria-hidden="true" d="M0,0h0v0h0Z" pointer-events="none"/><g><g class="mark-rule role-axis-tick" pointer-events="none"><line transform="translate(0,0)" x2="0" y2="5" stroke="#888" stroke-width="1" opacity="1"/><line transform="translate(38,0)" x2="0" y2="5" stroke="#888" stroke-width="1" opacity="1"/><line transform="translate(77,0)" x2="0" y2="5" stroke="#888" stroke-width="1" opacity="1"/><line transform="translate(115,0)" x2="0" y2="5" stroke="#888" stroke-width="1" opacity="1"/><line transform="translate(153,0)" x2="0" y2="5" stroke="#888" stroke-width="1" opacity="1"/><line transform="translate(192,0)" x2="0" y2="5" stroke="#888" stroke-width="1" opacity="1"/><line transform="translate(230,0)" x2="0" y2="5" stroke="#888" stroke-width="1" opacity="1"/><line transform="translate(268,0)" x2="0" y2="5" stroke="#888" stroke-width="1" opacity="1"/><line transform="translate(307,0)" x2="0" y2="5" stroke="#888" stroke-width="1" opacity="1"/><line transform="translate(345,0)" x2="0" y2="5" stroke="#888" stroke-width="1" opacity="1"/><line transform="translate(383,0)" x2="0" y2="5" stroke="#888" stroke-width="1" opacity="1"/><line transform="translate(422,0)" x2="0" y2="5" stroke="#888" stroke-width="1" opacity="1"/><line transform="translate(460,0)" x2="0" y2="5" stroke="#888" stroke-width="1" opacity="1"/></g><g class="mark-text role-axis-label" pointer-events="none"><text text-anchor="start" transform="translate(0,16)" font-family="sans-serif" font-size="11px" fill="#000" opacity="1">0.00</text><text text-anchor="middle" transform="translate(38.333333333333336,16)" font-family="sans-serif" font-size="11px" fill="#000" opacity="0">0.05</text><text text-anchor="middle" transform="translate(76.66666666666667,16)" font-family="sans-serif" font-size="11px" fill="#000" opacity="1">0.10</text><text text-anchor="middle" transform="translate(115,16)" font-family="sans-serif" font-size="11px" fill="#000" opacity="0">0.15</text><text text-anchor="middle" transform="translate(153.33333333333334,16)" font-family="sans-serif" font-size="11px" fill="#000" opacity="1">0.20</text><text text-anchor="middle" transform="translate(191.66666666666669,16)" font-family="sans-serif" font-size="11px" fill="#000" opacity="0">0.25</text><text text-anchor="middle" transform="translate(230,16)" font-family="sans-serif" font-size="11px" fill="#000" opacity="1">0.30</text><text text-anchor="middle" transform="translate(268.33333333333337,16)" font-family="sans-serif" font-size="11px" fill="#000" opacity="0">0.35</text><text text-anchor="middle" transform="translate(306.6666666666667,16)" font-family="sans-serif" font-size="11px" fill="#000" opacity="1">0.40</text><text text-anchor="middle" transform="translate(345,16)" font-family="sans-serif" font-size="11px" fill="#000" opacity="0">0.45</text><text text-anchor="middle" transform="translate(383.33333333333337,16)" font-family="sans-serif" font-size="11px" fill="#000" opacity="1">0.50</text><text text-anchor="middle" transform="translate(421.6666666666667,16)" font-family="sans-serif" font-size="11px" fill="#000" opacity="0">0.55</text><text text-anchor="end" transform="translate(460,16)" font-family="sans-serif" font-size="11px" fill="#000" opacity="1">0.60</text></g><g class="mark-rule role-axis-domain" pointer-events="none"><line transform="translate(0,0)" x2="460" y2="0" stroke="#888" stroke-width="1" opacity="1"/></g><g class="mark-text role-axis-title" pointer-events="none"><text text-anchor="middle" transform="translate(230,31)" font-family="sans-serif" font-size="12px" font-weight="bold" fill="#000" opacity="1">Mean citation F1</text></g></g><path class="foreground" aria-hidden="true" d="" pointer-events="none" display="none"/></g></g><g class="mark-group role-axis" role="graphics-symbol" aria-roledescription="axis" aria-label="Y-axis for a discrete scale with 5 values: CSM, hybrid RAG, vanilla RAG, LightRAG (SOTA), long-context"><g transform="translate(0.5,0.5)"><path class="background" aria-hidden="true" d="M0,0h0v0h0Z" pointer-events="none"/><g><g class="mark-rule role-axis-tick" pointer-events="none"><line transform="translate(0,30)" x2="-5" y2="0" stroke="#888" stroke-width="1" opacity="1"/><line transform="translate(0,90)" x2="-5" y2="0" stroke="#888" stroke-width="1" opacity="1"/><line transform="translate(0,150)" x2="-5" y2="0" stroke="#888" stroke-width="1" opacity="1"/><line transform="translate(0,210)" x2="-5" y2="0" stroke="#888" stroke-width="1" opacity="1"/><line transform="translate(0,270)" x2="-5" y2="0" stroke="#888" stroke-width="1" opacity="1"/></g><g class="mark-text role-axis-label" pointer-events="none"><text text-anchor="end" transform="translate(-7,33.5)" font-family="sans-serif" font-size="12px" fill="#000" opacity="1">CSM</text><text text-anchor="end" transform="translate(-7,93.5)" font-family="sans-serif" font-size="12px" fill="#000" opacity="1">hybrid RAG</text><text text-anchor="end" transform="translate(-7,153.5)" font-family="sans-serif" font-size="12px" fill="#000" opacity="1">vanilla RAG</text><text text-anchor="end" transform="translate(-7,213.5)" font-family="sans-serif" font-size="12px" fill="#000" opacity="1">LightRAG (SOTA)</text><text text-anchor="end" transform="translate(-7,273.5)" font-family="sans-serif" font-size="12px" fill="#000" opacity="1">long-context</text></g><g class="mark-rule role-axis-domain" pointer-events="none"><line transform="translate(0,0)" x2="0" y2="300" stroke="#888" stroke-width="1" opacity="1"/></g></g><path class="foreground" aria-hidden="true" d="" pointer-events="none" display="none"/></g></g><g class="mark-group role-scope" role="graphics-object" aria-roledescription="group mark container"><g transform="translate(0,3)"><path class="background" aria-hidden="true" d="M0,0L384.1666666666667,0C385.8224117401487,0,387.1666666666667,1.344254926518,387.1666666666667,3L387.1666666666667,51C387.1666666666667,52.655745073482,385.8224117401487,54,384.1666666666667,54L0,54C0,54,0,54,0,54L0,0C0,0,0,0,0,0Z"/><g clip-path="url(#clip1)"><g class="mark-group role-scope" role="graphics-object" aria-roledescription="group mark container"><g transform="translate(0,0)"><path class="background" aria-hidden="true" d="M0,0h0v54h0Z"/><g><g class="mark-rect role-mark layer_0_marks" role="graphics-object" aria-roledescription="rect mark container"><path aria-label="Mean citation F1: 0.505; system: CSM; kind: csm" role="graphics-symbol" aria-roledescription="bar" d="M0,0h387.1666666666667v54h-387.1666666666667Z" fill="#0e7c66"/></g></g><path class="foreground" aria-hidden="true" d="" display="none"/></g></g></g><path class="foreground" aria-hidden="true" d="" display="none"/></g><g transform="translate(0,63)"><path class="background" aria-hidden="true" d="M0,0L345.83333333333337,0C347.4890784068154,0,348.83333333333337,1.344254926518,348.83333333333337,3L348.83333333333337,51C348.83333333333337,52.655745073482,347.4890784068154,54,345.83333333333337,54L0,54C0,54,0,54,0,54L0,0C0,0,0,0,0,0Z"/><g clip-path="url(#clip2)"><g class="mark-group role-scope" role="graphics-object" aria-roledescription="group mark container"><g transform="translate(0,0)"><path class="background" aria-hidden="true" d="M0,0h0v54h0Z"/><g><g class="mark-rect role-mark layer_0_marks" role="graphics-object" aria-roledescription="rect mark container"><path aria-label="Mean citation F1: 0.455; system: hybrid RAG; kind: hybrid" role="graphics-symbol" aria-roledescription="bar" d="M0,0h348.83333333333337v54h-348.83333333333337Z" fill="#9ca3af"/></g></g><path class="foreground" aria-hidden="true" d="" display="none"/></g></g></g><path class="foreground" aria-hidden="true" d="" display="none"/></g><g transform="translate(0,123)"><path class="background" aria-hidden="true" d="M0,0L338.93333333333334,0C340.58907840681536,0,341.93333333333334,1.344254926518,341.93333333333334,3L341.93333333333334,51C341.93333333333334,52.655745073482,340.58907840681536,54,338.93333333333334,54L0,54C0,54,0,54,0,54L0,0C0,0,0,0,0,0Z"/><g clip-path="url(#clip3)"><g class="mark-group role-scope" role="graphics-object" aria-roledescription="group mark container"><g transform="translate(0,0)"><path class="background" aria-hidden="true" d="M0,0h0v54h0Z"/><g><g class="mark-rect role-mark layer_0_marks" role="graphics-object" aria-roledescription="rect mark container"><path aria-label="Mean citation F1: 0.446; system: vanilla RAG; kind: rag" role="graphics-symbol" aria-roledescription="bar" d="M0,0h341.93333333333334v54h-341.93333333333334Z" fill="#6b7280"/></g></g><path class="foreground" aria-hidden="true" d="" display="none"/></g></g></g><path class="foreground" aria-hidden="true" d="" display="none"/></g><g transform="translate(0,183)"><path class="background" aria-hidden="true" d="M0,0L200.16666666666669,0C201.82241174014868,0,203.16666666666669,1.344254926518,203.16666666666669,3L203.16666666666669,51C203.16666666666669,52.655745073482,201.82241174014868,54,200.16666666666669,54L0,54C0,54,0,54,0,54L0,0C0,0,0,0,0,0Z"/><g clip-path="url(#clip4)"><g class="mark-group role-scope" role="graphics-object" aria-roledescription="group mark container"><g transform="translate(0,0)"><path class="background" aria-hidden="true" d="M0,0h0v54h0Z"/><g><g class="mark-rect role-mark layer_0_marks" role="graphics-object" aria-roledescription="rect mark container"><path aria-label="Mean citation F1: 0.265; system: LightRAG (SOTA); kind: lightrag" role="graphics-symbol" aria-roledescription="bar" d="M0,0h203.16666666666669v54h-203.16666666666669Z" fill="#b45309"/></g></g><path class="foreground" aria-hidden="true" d="" display="none"/></g></g></g><path class="foreground" aria-hidden="true" d="" display="none"/></g><g transform="translate(0,243)"><path class="background" aria-hidden="true" d="M0,0L48.366666666666674,0C50.02241174014868,0,51.366666666666674,1.344254926518,51.366666666666674,3L51.366666666666674,51C51.366666666666674,52.655745073482,50.02241174014868,54,48.366666666666674,54L0,54C0,54,0,54,0,54L0,0C0,0,0,0,0,0Z"/><g clip-path="url(#clip5)"><g class="mark-group role-scope" role="graphics-object" aria-roledescription="group mark container"><g transform="translate(0,0)"><path class="background" aria-hidden="true" d="M0,0h0v54h0Z"/><g><g class="mark-rect role-mark layer_0_marks" role="graphics-object" aria-roledescription="rect mark container"><path aria-label="Mean citation F1: 0.067; system: long-context; kind: longctx" role="graphics-symbol" aria-roledescription="bar" d="M0,0h51.366666666666674v54h-51.366666666666674Z" fill="#9ca3af"/></g></g><path class="foreground" aria-hidden="true" d="" display="none"/></g></g></g><path class="foreground" aria-hidden="true" d="" display="none"/></g></g><g class="mark-text role-mark layer_1_marks" role="graphics-object" aria-roledescription="text mark container"><text aria-label="Mean citation F1: 0.505; system: CSM; kind: csm; f1: 0.505" role="graphics-symbol" aria-roledescription="text mark" text-anchor="start" transform="translate(391.1666666666667,34)" font-family="sans-serif" font-size="12px" font-weight="bold" fill="#0e7c66">0.505</text><text aria-label="Mean citation F1: 0.455; system: hybrid RAG; kind: hybrid; f1: 0.455" role="graphics-symbol" aria-roledescription="text mark" text-anchor="start" transform="translate(352.83333333333337,94)" font-family="sans-serif" font-size="12px" font-weight="bold" fill="#9ca3af">0.455</text><text aria-label="Mean citation F1: 0.446; system: vanilla RAG; kind: rag; f1: 0.446" role="graphics-symbol" aria-roledescription="text mark" text-anchor="start" transform="translate(345.93333333333334,154)" font-family="sans-serif" font-size="12px" font-weight="bold" fill="#6b7280">0.446</text><text aria-label="Mean citation F1: 0.265; system: LightRAG (SOTA); kind: lightrag; f1: 0.265" role="graphics-symbol" aria-roledescription="text mark" text-anchor="start" transform="translate(207.16666666666669,214)" font-family="sans-serif" font-size="12px" font-weight="bold" fill="#b45309">0.265</text><text aria-label="Mean citation F1: 0.067; system: long-context; kind: longctx; f1: 0.067" role="graphics-symbol" aria-roledescription="text mark" text-anchor="start" transform="translate(55.366666666666674,274)" font-family="sans-serif" font-size="12px" font-weight="bold" fill="#9ca3af">0.067</text></g><g class="mark-group role-title"><g transform="translate(-151,-33)"><path class="background" aria-hidden="true" d="M0,0h0v0h0Z" pointer-events="none"/><g><g class="mark-text role-title-text" role="graphics-symbol" aria-roledescription="title" aria-label="Title text 'Citation F1 — grounding quality (30 queries, 100K corpus)'" pointer-events="none"><text text-anchor="start" transform="translate(0,12)" font-family="sans-serif" font-size="15px" font-weight="bold" fill="#000" opacity="1">Citation F1 — grounding quality (30 queries, 100K corpus)</text></g><g class="mark-text role-title-subtitle" role="graphics-symbol" aria-roledescription="subtitle" aria-label="Subtitle text 'Did the answer cite the right source events? Higher is better.'" pointer-events="none"><text text-anchor="start" transform="translate(0,27)" font-family="sans-serif" font-size="11px" fill="#6b7280" opacity="1">Did the answer cite the right source events? Higher is better.</text></g></g><path class="foreground" aria-hidden="true" d="" pointer-events="none" display="none"/></g></g></g><path class="foreground" aria-hidden="true" d="" display="none"/></g></g></g><defs><clipPath id="clip1"><path d="M0,0L384.1666666666667,0C385.8224117401487,0,387.1666666666667,1.344254926518,387.1666666666667,3L387.1666666666667,51C387.1666666666667,52.655745073482,385.8224117401487,54,384.1666666666667,54L0,54C0,54,0,54,0,54L0,0C0,0,0,0,0,0Z"/></clipPath><clipPath id="clip2"><path d="M0,0L345.83333333333337,0C347.4890784068154,0,348.83333333333337,1.344254926518,348.83333333333337,3L348.83333333333337,51C348.83333333333337,52.655745073482,347.4890784068154,54,345.83333333333337,54L0,54C0,54,0,54,0,54L0,0C0,0,0,0,0,0Z"/></clipPath><clipPath id="clip3"><path d="M0,0L338.93333333333334,0C340.58907840681536,0,341.93333333333334,1.344254926518,341.93333333333334,3L341.93333333333334,51C341.93333333333334,52.655745073482,340.58907840681536,54,338.93333333333334,54L0,54C0,54,0,54,0,54L0,0C0,0,0,0,0,0Z"/></clipPath><clipPath id="clip4"><path d="M0,0L200.16666666666669,0C201.82241174014868,0,203.16666666666669,1.344254926518,203.16666666666669,3L203.16666666666669,51C203.16666666666669,52.655745073482,201.82241174014868,54,200.16666666666669,54L0,54C0,54,0,54,0,54L0,0C0,0,0,0,0,0Z"/></clipPath><clipPath id="clip5"><path d="M0,0L48.366666666666674,0C50.02241174014868,0,51.366666666666674,1.344254926518,51.366666666666674,3L51.366666666666674,51C51.366666666666674,52.655745073482,50.02241174014868,54,48.366666666666674,54L0,54C0,54,0,54,0,54L0,0C0,0,0,0,0,0Z"/></clipPath></defs></svg>