<svg xmlns="http://www.w3.org/2000/svg" xmlns:xlink="http://www.w3.org/1999/xlink" version="1.1" class="marks" width="618" height="363" viewBox="0 0 618 363"><rect width="618" height="363" fill="white"/><g fill="none" stroke-miterlimit="10" transform="translate(55,65)"><g class="mark-group role-frame root" role="graphics-object" aria-roledescription="group mark container"><g transform="translate(0,0)"><path class="background" aria-hidden="true" d="M0,0h0v0h0Z"/><g><g class="mark-group role-row-header row_header" role="graphics-object" aria-roledescription="group mark container"><g transform="translate(-1,0)"><path class="background" aria-hidden="true" d="M0,0h0v245h0Z"/><g><g class="mark-group role-axis" role="graphics-symbol" aria-roledescription="axis" aria-label="Y-axis titled 'Citation score' for a linear scale with values from 0.0 to 0.9"><g transform="translate(0.5,0.5)"><path class="background" aria-hidden="true" d="M0,0h0v0h0Z" pointer-events="none"/><g><g class="mark-rule role-axis-tick" pointer-events="none"><line transform="translate(0,245)" x2="-5" y2="0" stroke="#888" stroke-width="1" opacity="1"/><line transform="translate(0,191)" x2="-5" y2="0" stroke="#888" stroke-width="1" opacity="1"/><line transform="translate(0,136)" x2="-5" y2="0" stroke="#888" stroke-width="1" opacity="1"/><line transform="translate(0,82)" x2="-5" y2="0" stroke="#888" stroke-width="1" opacity="1"/><line transform="translate(0,27)" x2="-5" y2="0" stroke="#888" stroke-width="1" opacity="1"/></g><g class="mark-text role-axis-label" pointer-events="none"><text text-anchor="end" transform="translate(-7,248)" font-family="sans-serif" font-size="10px" fill="#000" opacity="1">0.0</text><text text-anchor="end" transform="translate(-7,193.55555555555557)" font-family="sans-serif" font-size="10px" fill="#000" opacity="1">0.2</text><text text-anchor="end" transform="translate(-7,139.11111111111111)" font-family="sans-serif" font-size="10px" fill="#000" opacity="1">0.4</text><text text-anchor="end" transform="translate(-7,84.66666666666667)" font-family="sans-serif" font-size="10px" fill="#000" opacity="1">0.6</text><text text-anchor="end" transform="translate(-7,30.222222222222207)" font-family="sans-serif" font-size="10px" fill="#000" opacity="1">0.8</text></g><g class="mark-rule role-axis-domain" pointer-events="none"><line transform="translate(0,245)" x2="0" y2="-245" stroke="#888" stroke-width="1" opacity="1"/></g><g class="mark-text role-axis-title" pointer-events="none"><text text-anchor="middle" transform="translate(-35,122.5) rotate(-90) translate(0,-2)" font-family="sans-serif" font-size="11px" font-weight="bold" fill="#000" opacity="1">Citation score</text></g></g><path class="foreground" aria-hidden="true" d="" pointer-events="none" display="none"/></g></g></g><path class="foreground" aria-hidden="true" d="" display="none"/></g></g><g class="mark-group role-column-header column_header" role="graphics-object" aria-roledescription="group mark container"><g transform="translate(0,-1)"><path class="background" aria-hidden="true" d="M0,0h170v0h-170Z"/><g><g class="mark-group role-title"><g transform="translate(85,-23)"><path class="background" aria-hidden="true" d="M0,0h0v0h0Z" pointer-events="none"/><g><g class="mark-text role-title-text" role="graphics-symbol" aria-roledescription="title" aria-label="Title text 'Precision'" pointer-events="none"><text text-anchor="middle" transform="translate(0,10)" font-family="sans-serif" font-size="13px" font-weight="bold" fill="#000" opacity="1">Precision</text></g></g><path class="foreground" aria-hidden="true" d="" pointer-events="none" display="none"/></g></g></g><path class="foreground" aria-hidden="true" d="" display="none"/></g><g transform="translate(192,-1)"><path class="background" aria-hidden="true" d="M0,0h170v0h-170Z"/><g><g class="mark-group role-title"><g transform="translate(85,-23)"><path class="background" aria-hidden="true" d="M0,0h0v0h0Z" pointer-events="none"/><g><g class="mark-text role-title-text" role="graphics-symbol" aria-roledescription="title" aria-label="Title text 'Recall'" pointer-events="none"><text text-anchor="middle" transform="translate(0,10)" font-family="sans-serif" font-size="13px" font-weight="bold" fill="#000" opacity="1">Recall</text></g></g><path class="foreground" aria-hidden="true" d="" pointer-events="none" display="none"/></g></g></g><path class="foreground" aria-hidden="true" d="" display="none"/></g><g transform="translate(384,-1)"><path class="background" aria-hidden="true" d="M0,0h170v0h-170Z"/><g><g class="mark-group role-title"><g transform="translate(85,-23)"><path class="background" aria-hidden="true" d="M0,0h0v0h0Z" pointer-events="none"/><g><g class="mark-text role-title-text" role="graphics-symbol" aria-roledescription="title" aria-label="Title text 'F1'" pointer-events="none"><text text-anchor="middle" transform="translate(0,10)" font-family="sans-serif" font-size="13px" font-weight="bold" fill="#000" opacity="1">F1</text></g></g><path class="foreground" aria-hidden="true" d="" pointer-events="none" display="none"/></g></g></g><path class="foreground" aria-hidden="true" d="" display="none"/></g></g><g class="mark-group role-column-footer column_footer" role="graphics-object" aria-roledescription="group mark container"><g transform="translate(0,246)"><path class="background" aria-hidden="true" d="M0,0h170v0h-170Z"/><g><g class="mark-group role-axis" role="graphics-symbol" aria-roledescription="axis" aria-label="X-axis for a discrete scale with 3 values: 100K, 1M, 2M"><g transform="translate(0.5,0.5)"><path class="background" aria-hidden="true" d="M0,0h0v0h0Z" pointer-events="none"/><g><g class="mark-text role-axis-label" pointer-events="none"><text text-anchor="middle" transform="translate(28.333333333333336,11)" font-family="sans-serif" font-size="11px" fill="#000" opacity="1">100K</text><text text-anchor="middle" transform="translate(85,11)" font-family="sans-serif" font-size="11px" fill="#000" opacity="1">1M</text><text text-anchor="middle" transform="translate(141.66666666666666,11)" font-family="sans-serif" font-size="11px" fill="#000" opacity="1">2M</text></g></g><path class="foreground" aria-hidden="true" d="" pointer-events="none" display="none"/></g></g></g><path class="foreground" aria-hidden="true" d="" display="none"/></g><g transform="translate(192,246)"><path class="background" aria-hidden="true" d="M0,0h170v0h-170Z"/><g><g class="mark-group role-axis" role="graphics-symbol" aria-roledescription="axis" aria-label="X-axis for a discrete scale with 3 values: 100K, 1M, 2M"><g transform="translate(0.5,0.5)"><path class="background" aria-hidden="true" d="M0,0h0v0h0Z" pointer-events="none"/><g><g class="mark-text role-axis-label" pointer-events="none"><text text-anchor="middle" transform="translate(28.333333333333336,11)" font-family="sans-serif" font-size="11px" fill="#000" opacity="1">100K</text><text text-anchor="middle" transform="translate(85,11)" font-family="sans-serif" font-size="11px" fill="#000" opacity="1">1M</text><text text-anchor="middle" transform="translate(141.66666666666666,11)" font-family="sans-serif" font-size="11px" fill="#000" opacity="1">2M</text></g></g><path class="foreground" aria-hidden="true" d="" pointer-events="none" display="none"/></g></g></g><path class="foreground" aria-hidden="true" d="" display="none"/></g><g transform="translate(384,246)"><path class="background" aria-hidden="true" d="M0,0h170v0h-170Z"/><g><g class="mark-group role-axis" role="graphics-symbol" aria-roledescription="axis" aria-label="X-axis for a discrete scale with 3 values: 100K, 1M, 2M"><g transform="translate(0.5,0.5)"><path class="background" aria-hidden="true" d="M0,0h0v0h0Z" pointer-events="none"/><g><g class="mark-text role-axis-label" pointer-events="none"><text text-anchor="middle" transform="translate(28.333333333333336,11)" font-family="sans-serif" font-size="11px" fill="#000" opacity="1">100K</text><text text-anchor="middle" transform="translate(85,11)" font-family="sans-serif" font-size="11px" fill="#000" opacity="1">1M</text><text text-anchor="middle" transform="translate(141.66666666666666,11)" font-family="sans-serif" font-size="11px" fill="#000" opacity="1">2M</text></g></g><path class="foreground" aria-hidden="true" d="" pointer-events="none" display="none"/></g></g></g><path class="foreground" aria-hidden="true" d="" display="none"/></g></g><g class="mark-group role-scope cell" role="graphics-object" aria-roledescription="group mark container"><g transform="translate(0,0)"><path class="background" aria-hidden="true" d="M0.5,0.5h170v245h-170Z" stroke="#ddd"/><g><g class="mark-group role-axis" aria-hidden="true"><g transform="translate(0.5,0.5)"><path class="background" aria-hidden="true" d="M0,0h0v0h0Z" pointer-events="none"/><g><g class="mark-rule role-axis-grid" pointer-events="none"><line transform="translate(0,245)" x2="170" y2="0" stroke="#eef2f7" stroke-width="1" opacity="1"/><line transform="translate(0,191)" x2="170" y2="0" stroke="#eef2f7" stroke-width="1" opacity="1"/><line transform="translate(0,136)" x2="170" y2="0" stroke="#eef2f7" stroke-width="1" opacity="1"/><line transform="translate(0,82)" x2="170" y2="0" stroke="#eef2f7" stroke-width="1" opacity="1"/><line transform="translate(0,27)" x2="170" y2="0" stroke="#eef2f7" stroke-width="1" opacity="1"/></g></g><path class="foreground" aria-hidden="true" d="" pointer-events="none" display="none"/></g></g><g class="mark-group role-scope child_layer_0_pathgroup" role="graphics-object" aria-roledescription="group mark container"><g transform="translate(0,0)"><path class="background" aria-hidden="true" d="M0,0h170v245h-170Z"/><g><g class="mark-line role-mark child_layer_0_marks" role="graphics-object" aria-roledescription="line mark container"><path aria-label="corpus: 100K; Citation score: 0.778; system: CSM" role="graphics-symbol" aria-roledescription="line mark" d="M28.333,33.211L85,34.844L141.667,30.217" stroke="#0e7c66" stroke-width="2.5"/></g></g><path class="foreground" aria-hidden="true" d="" display="none"/></g><g transform="translate(0,0)"><path class="background" aria-hidden="true" d="M0,0h170v245h-170Z"/><g><g class="mark-line role-mark child_layer_0_marks" role="graphics-object" aria-roledescription="line mark container"><path aria-label="corpus: 100K; Citation score: 0.742; system: hybrid RAG" role="graphics-symbol" aria-roledescription="line mark" d="M28.333,43.011L85,66.967L141.667,60.706" stroke="#f59e0b" stroke-width="2.5"/></g></g><path class="foreground" aria-hidden="true" d="" display="none"/></g><g transform="translate(0,0)"><path class="background" aria-hidden="true" d="M0,0h170v245h-170Z"/><g><g class="mark-line role-mark child_layer_0_marks" role="graphics-object" aria-roledescription="line mark container"><path aria-label="corpus: 100K; Citation score: 0.733; system: vanilla RAG" role="graphics-symbol" aria-roledescription="line mark" d="M28.333,45.461L85,72.683L141.667,81.667" stroke="#2563eb" stroke-width="2.5"/></g></g><path class="foreground" aria-hidden="true" d="" display="none"/></g><g transform="translate(0,0)"><path class="background" aria-hidden="true" d="M0,0h170v245h-170Z"/><g><g class="mark-line role-mark child_layer_0_marks" role="graphics-object" aria-roledescription="line mark container"><path aria-label="corpus: 100K; Citation score: 0.827; system: long-context" role="graphics-symbol" aria-roledescription="line mark" d="M28.333,19.872L85,164.967L141.667,187.561" stroke="#dc2626" stroke-width="2.5"/></g></g><path class="foreground" aria-hidden="true" d="" display="none"/></g></g><g class="mark-symbol role-mark child_layer_1_marks" role="graphics-object" aria-roledescription="symbol mark container"><path aria-label="corpus: 100K; Citation score: 0.778; system: CSM" role="graphics-symbol" aria-roledescription="point" transform="translate(28.333333333333336,33.21111111111111)" d="M3.873,0A3.873,3.873,0,1,1,-3.873,0A3.873,3.873,0,1,1,3.873,0" fill="#0e7c66" stroke-width="2" opacity="0.7"/><path aria-label="corpus: 1M; Citation score: 0.772; system: CSM" role="graphics-symbol" aria-roledescription="point" transform="translate(85,34.84444444444445)" d="M3.873,0A3.873,3.873,0,1,1,-3.873,0A3.873,3.873,0,1,1,3.873,0" fill="#0e7c66" stroke-width="2" opacity="0.7"/><path aria-label="corpus: 2M; Citation score: 0.789; system: CSM" role="graphics-symbol" aria-roledescription="point" transform="translate(141.66666666666666,30.216666666666658)" d="M3.873,0A3.873,3.873,0,1,1,-3.873,0A3.873,3.873,0,1,1,3.873,0" fill="#0e7c66" stroke-width="2" opacity="0.7"/><path aria-label="corpus: 100K; Citation score: 0.742; system: hybrid RAG" role="graphics-symbol" aria-roledescription="point" transform="translate(28.333333333333336,43.01111111111111)" d="M3.873,0A3.873,3.873,0,1,1,-3.873,0A3.873,3.873,0,1,1,3.873,0" fill="#f59e0b" stroke-width="2" opacity="0.7"/><path aria-label="corpus: 1M; Citation score: 0.654; system: hybrid RAG" role="graphics-symbol" aria-roledescription="point" transform="translate(85,66.96666666666667)" d="M3.873,0A3.873,3.873,0,1,1,-3.873,0A3.873,3.873,0,1,1,3.873,0" fill="#f59e0b" stroke-width="2" opacity="0.7"/><path aria-label="corpus: 2M; Citation score: 0.677; system: hybrid RAG" role="graphics-symbol" aria-roledescription="point" transform="translate(141.66666666666666,60.70555555555555)" d="M3.873,0A3.873,3.873,0,1,1,-3.873,0A3.873,3.873,0,1,1,3.873,0" fill="#f59e0b" stroke-width="2" opacity="0.7"/><path aria-label="corpus: 100K; Citation score: 0.733; system: vanilla RAG" role="graphics-symbol" aria-roledescription="point" transform="translate(28.333333333333336,45.461111111111116)" d="M3.873,0A3.873,3.873,0,1,1,-3.873,0A3.873,3.873,0,1,1,3.873,0" fill="#2563eb" stroke-width="2" opacity="0.7"/><path aria-label="corpus: 1M; Citation score: 0.633; system: vanilla RAG" role="graphics-symbol" aria-roledescription="point" transform="translate(85,72.68333333333332)" d="M3.873,0A3.873,3.873,0,1,1,-3.873,0A3.873,3.873,0,1,1,3.873,0" fill="#2563eb" stroke-width="2" opacity="0.7"/><path aria-label="corpus: 2M; Citation score: 0.6; system: vanilla RAG" role="graphics-symbol" aria-roledescription="point" transform="translate(141.66666666666666,81.66666666666667)" d="M3.873,0A3.873,3.873,0,1,1,-3.873,0A3.873,3.873,0,1,1,3.873,0" fill="#2563eb" stroke-width="2" opacity="0.7"/><path aria-label="corpus: 100K; Citation score: 0.827; system: long-context" role="graphics-symbol" aria-roledescription="point" transform="translate(28.333333333333336,19.872222222222227)" d="M3.873,0A3.873,3.873,0,1,1,-3.873,0A3.873,3.873,0,1,1,3.873,0" fill="#dc2626" stroke-width="2" opacity="0.7"/><path aria-label="corpus: 1M; Citation score: 0.294; system: long-context" role="graphics-symbol" aria-roledescription="point" transform="translate(85,164.96666666666667)" d="M3.873,0A3.873,3.873,0,1,1,-3.873,0A3.873,3.873,0,1,1,3.873,0" fill="#dc2626" stroke-width="2" opacity="0.7"/><path aria-label="corpus: 2M; Citation score: 0.211; system: long-context" role="graphics-symbol" aria-roledescription="point" transform="translate(141.66666666666666,187.5611111111111)" d="M3.873,0A3.873,3.873,0,1,1,-3.873,0A3.873,3.873,0,1,1,3.873,0" fill="#dc2626" stroke-width="2" opacity="0.7"/></g></g><path class="foreground" aria-hidden="true" d="" display="none"/></g><g transform="translate(192,0)"><path class="background" aria-hidden="true" d="M0.5,0.5h170v245h-170Z" stroke="#ddd"/><g><g class="mark-group role-axis" aria-hidden="true"><g transform="translate(0.5,0.5)"><path class="background" aria-hidden="true" d="M0,0h0v0h0Z" pointer-events="none"/><g><g class="mark-rule role-axis-grid" pointer-events="none"><line transform="translate(0,245)" x2="170" y2="0" stroke="#eef2f7" stroke-width="1" opacity="1"/><line transform="translate(0,191)" x2="170" y2="0" stroke="#eef2f7" stroke-width="1" opacity="1"/><line transform="translate(0,136)" x2="170" y2="0" stroke="#eef2f7" stroke-width="1" opacity="1"/><line transform="translate(0,82)" x2="170" y2="0" stroke="#eef2f7" stroke-width="1" opacity="1"/><line transform="translate(0,27)" x2="170" y2="0" stroke="#eef2f7" stroke-width="1" opacity="1"/></g></g><path class="foreground" aria-hidden="true" d="" pointer-events="none" display="none"/></g></g><g class="mark-group role-scope child_layer_0_pathgroup" role="graphics-object" aria-roledescription="group mark container"><g transform="translate(0,0)"><path class="background" aria-hidden="true" d="M0,0h170v245h-170Z"/><g><g class="mark-line role-mark child_layer_0_marks" role="graphics-object" aria-roledescription="line mark container"><path aria-label="corpus: 100K; Citation score: 0.452; system: CSM" role="graphics-symbol" aria-roledescription="line mark" d="M28.333,121.956L85,121.139L141.667,123.589" stroke="#0e7c66" stroke-width="2.5"/></g></g><path class="foreground" aria-hidden="true" d="" display="none"/></g><g transform="translate(0,0)"><path class="background" aria-hidden="true" d="M0,0h170v245h-170Z"/><g><g class="mark-line role-mark child_layer_0_marks" role="graphics-object" aria-roledescription="line mark container"><path aria-label="corpus: 100K; Citation score: 0.423; system: hybrid RAG" role="graphics-symbol" aria-roledescription="line mark" d="M28.333,129.85L85,142.644L141.667,145.911" stroke="#f59e0b" stroke-width="2.5"/></g></g><path class="foreground" aria-hidden="true" d="" display="none"/></g><g transform="translate(0,0)"><path class="background" aria-hidden="true" d="M0,0h170v245h-170Z"/><g><g class="mark-line role-mark child_layer_0_marks" role="graphics-object" aria-roledescription="line mark container"><path aria-label="corpus: 100K; Citation score: 0.417; system: vanilla RAG" role="graphics-symbol" aria-roledescription="line mark" d="M28.333,131.483L85,157.617L141.667,159.25" stroke="#2563eb" stroke-width="2.5"/></g></g><path class="foreground" aria-hidden="true" d="" display="none"/></g><g transform="translate(0,0)"><path class="background" aria-hidden="true" d="M0,0h170v245h-170Z"/><g><g class="mark-line role-mark child_layer_0_marks" role="graphics-object" aria-roledescription="line mark container"><path aria-label="corpus: 100K; Citation score: 0.532; system: long-context" role="graphics-symbol" aria-roledescription="line mark" d="M28.333,100.178L85,193.822L141.667,211.789" stroke="#dc2626" stroke-width="2.5"/></g></g><path class="foreground" aria-hidden="true" d="" display="none"/></g></g><g class="mark-symbol role-mark child_layer_1_marks" role="graphics-object" aria-roledescription="symbol mark container"><path aria-label="corpus: 100K; Citation score: 0.452; system: CSM" role="graphics-symbol" aria-roledescription="point" transform="translate(28.333333333333336,121.95555555555555)" d="M3.873,0A3.873,3.873,0,1,1,-3.873,0A3.873,3.873,0,1,1,3.873,0" fill="#0e7c66" stroke-width="2" opacity="0.7"/><path aria-label="corpus: 1M; Citation score: 0.455; system: CSM" role="graphics-symbol" aria-roledescription="point" transform="translate(85,121.1388888888889)" d="M3.873,0A3.873,3.873,0,1,1,-3.873,0A3.873,3.873,0,1,1,3.873,0" fill="#0e7c66" stroke-width="2" opacity="0.7"/><path aria-label="corpus: 2M; Citation score: 0.446; system: CSM" role="graphics-symbol" aria-roledescription="point" transform="translate(141.66666666666666,123.5888888888889)" d="M3.873,0A3.873,3.873,0,1,1,-3.873,0A3.873,3.873,0,1,1,3.873,0" fill="#0e7c66" stroke-width="2" opacity="0.7"/><path aria-label="corpus: 100K; Citation score: 0.423; system: hybrid RAG" role="graphics-symbol" aria-roledescription="point" transform="translate(28.333333333333336,129.85)" d="M3.873,0A3.873,3.873,0,1,1,-3.873,0A3.873,3.873,0,1,1,3.873,0" fill="#f59e0b" stroke-width="2" opacity="0.7"/><path aria-label="corpus: 1M; Citation score: 0.376; system: hybrid RAG" role="graphics-symbol" aria-roledescription="point" transform="translate(85,142.64444444444445)" d="M3.873,0A3.873,3.873,0,1,1,-3.873,0A3.873,3.873,0,1,1,3.873,0" fill="#f59e0b" stroke-width="2" opacity="0.7"/><path aria-label="corpus: 2M; Citation score: 0.364; system: hybrid RAG" role="graphics-symbol" aria-roledescription="point" transform="translate(141.66666666666666,145.91111111111113)" d="M3.873,0A3.873,3.873,0,1,1,-3.873,0A3.873,3.873,0,1,1,3.873,0" fill="#f59e0b" stroke-width="2" opacity="0.7"/><path aria-label="corpus: 100K; Citation score: 0.417; system: vanilla RAG" role="graphics-symbol" aria-roledescription="point" transform="translate(28.333333333333336,131.48333333333332)" d="M3.873,0A3.873,3.873,0,1,1,-3.873,0A3.873,3.873,0,1,1,3.873,0" fill="#2563eb" stroke-width="2" opacity="0.7"/><path aria-label="corpus: 1M; Citation score: 0.321; system: vanilla RAG" role="graphics-symbol" aria-roledescription="point" transform="translate(85,157.61666666666667)" d="M3.873,0A3.873,3.873,0,1,1,-3.873,0A3.873,3.873,0,1,1,3.873,0" fill="#2563eb" stroke-width="2" opacity="0.7"/><path aria-label="corpus: 2M; Citation score: 0.315; system: vanilla RAG" role="graphics-symbol" aria-roledescription="point" transform="translate(141.66666666666666,159.25)" d="M3.873,0A3.873,3.873,0,1,1,-3.873,0A3.873,3.873,0,1,1,3.873,0" fill="#2563eb" stroke-width="2" opacity="0.7"/><path aria-label="corpus: 100K; Citation score: 0.532; system: long-context" role="graphics-symbol" aria-roledescription="point" transform="translate(28.333333333333336,100.17777777777778)" d="M3.873,0A3.873,3.873,0,1,1,-3.873,0A3.873,3.873,0,1,1,3.873,0" fill="#dc2626" stroke-width="2" opacity="0.7"/><path aria-label="corpus: 1M; Citation score: 0.188; system: long-context" role="graphics-symbol" aria-roledescription="point" transform="translate(85,193.82222222222222)" d="M3.873,0A3.873,3.873,0,1,1,-3.873,0A3.873,3.873,0,1,1,3.873,0" fill="#dc2626" stroke-width="2" opacity="0.7"/><path aria-label="corpus: 2M; Citation score: 0.122; system: long-context" role="graphics-symbol" aria-roledescription="point" transform="translate(141.66666666666666,211.7888888888889)" d="M3.873,0A3.873,3.873,0,1,1,-3.873,0A3.873,3.873,0,1,1,3.873,0" fill="#dc2626" stroke-width="2" opacity="0.7"/></g></g><path class="foreground" aria-hidden="true" d="" display="none"/></g><g transform="translate(384,0)"><path class="background" aria-hidden="true" d="M0.5,0.5h170v245h-170Z" stroke="#ddd"/><g><g class="mark-group role-axis" aria-hidden="true"><g transform="translate(0.5,0.5)"><path class="background" aria-hidden="true" d="M0,0h0v0h0Z" pointer-events="none"/><g><g class="mark-rule role-axis-grid" pointer-events="none"><line transform="translate(0,245)" x2="170" y2="0" stroke="#eef2f7" stroke-width="1" opacity="1"/><line transform="translate(0,191)" x2="170" y2="0" stroke="#eef2f7" stroke-width="1" opacity="1"/><line transform="translate(0,136)" x2="170" y2="0" stroke="#eef2f7" stroke-width="1" opacity="1"/><line transform="translate(0,82)" x2="170" y2="0" stroke="#eef2f7" stroke-width="1" opacity="1"/><line transform="translate(0,27)" x2="170" y2="0" stroke="#eef2f7" stroke-width="1" opacity="1"/></g></g><path class="foreground" aria-hidden="true" d="" pointer-events="none" display="none"/></g></g><g class="mark-group role-scope child_layer_0_pathgroup" role="graphics-object" aria-roledescription="group mark container"><g transform="translate(0,0)"><path class="background" aria-hidden="true" d="M0,0h170v245h-170Z"/><g><g class="mark-line role-mark child_layer_0_marks" role="graphics-object" aria-roledescription="line mark container"><path aria-label="corpus: 100K; Citation score: 0.517; system: CSM" role="graphics-symbol" aria-roledescription="line mark" d="M28.333,104.261L85,102.628L141.667,104.806" stroke="#0e7c66" stroke-width="2.5"/></g></g><path class="foreground" aria-hidden="true" d="" display="none"/></g><g transform="translate(0,0)"><path class="background" aria-hidden="true" d="M0,0h170v245h-170Z"/><g><g class="mark-line role-mark child_layer_0_marks" role="graphics-object" aria-roledescription="line mark container"><path aria-label="corpus: 100K; Citation score: 0.447; system: hybrid RAG" role="graphics-symbol" aria-roledescription="line mark" d="M28.333,123.317L85,139.922L141.667,139.922" stroke="#f59e0b" stroke-width="2.5"/></g></g><path class="foreground" aria-hidden="true" d="" display="none"/></g><g transform="translate(0,0)"><path class="background" aria-hidden="true" d="M0,0h170v245h-170Z"/><g><g class="mark-line role-mark child_layer_0_marks" role="graphics-object" aria-roledescription="line mark container"><path aria-label="corpus: 100K; Citation score: 0.447; system: vanilla RAG" role="graphics-symbol" aria-roledescription="line mark" d="M28.333,123.317L85,151.083L141.667,154.078" stroke="#2563eb" stroke-width="2.5"/></g></g><path class="foreground" aria-hidden="true" d="" display="none"/></g><g transform="translate(0,0)"><path class="background" aria-hidden="true" d="M0,0h170v245h-170Z"/><g><g class="mark-line role-mark child_layer_0_marks" role="graphics-object" aria-roledescription="line mark container"><path aria-label="corpus: 100K; Citation score: 0.559; system: long-context" role="graphics-symbol" aria-roledescription="line mark" d="M28.333,92.828L85,200.628L141.667,221.589" stroke="#dc2626" stroke-width="2.5"/></g></g><path class="foreground" aria-hidden="true" d="" display="none"/></g></g><g class="mark-symbol role-mark child_layer_1_marks" role="graphics-object" aria-roledescription="symbol mark container"><path aria-label="corpus: 100K; Citation score: 0.517; system: CSM" role="graphics-symbol" aria-roledescription="point" transform="translate(28.333333333333336,104.26111111111112)" d="M3.873,0A3.873,3.873,0,1,1,-3.873,0A3.873,3.873,0,1,1,3.873,0" fill="#0e7c66" stroke-width="2" opacity="0.7"/><path aria-label="corpus: 1M; Citation score: 0.523; system: CSM" role="graphics-symbol" aria-roledescription="point" transform="translate(85,102.62777777777777)" d="M3.873,0A3.873,3.873,0,1,1,-3.873,0A3.873,3.873,0,1,1,3.873,0" fill="#0e7c66" stroke-width="2" opacity="0.7"/><path aria-label="corpus: 2M; Citation score: 0.515; system: CSM" role="graphics-symbol" aria-roledescription="point" transform="translate(141.66666666666666,104.80555555555556)" d="M3.873,0A3.873,3.873,0,1,1,-3.873,0A3.873,3.873,0,1,1,3.873,0" fill="#0e7c66" stroke-width="2" opacity="0.7"/><path aria-label="corpus: 100K; Citation score: 0.447; system: hybrid RAG" role="graphics-symbol" aria-roledescription="point" transform="translate(28.333333333333336,123.31666666666669)" d="M3.873,0A3.873,3.873,0,1,1,-3.873,0A3.873,3.873,0,1,1,3.873,0" fill="#f59e0b" stroke-width="2" opacity="0.7"/><path aria-label="corpus: 1M; Citation score: 0.386; system: hybrid RAG" role="graphics-symbol" aria-roledescription="point" transform="translate(85,139.92222222222222)" d="M3.873,0A3.873,3.873,0,1,1,-3.873,0A3.873,3.873,0,1,1,3.873,0" fill="#f59e0b" stroke-width="2" opacity="0.7"/><path aria-label="corpus: 2M; Citation score: 0.386; system: hybrid RAG" role="graphics-symbol" aria-roledescription="point" transform="translate(141.66666666666666,139.92222222222222)" d="M3.873,0A3.873,3.873,0,1,1,-3.873,0A3.873,3.873,0,1,1,3.873,0" fill="#f59e0b" stroke-width="2" opacity="0.7"/><path aria-label="corpus: 100K; Citation score: 0.447; system: vanilla RAG" role="graphics-symbol" aria-roledescription="point" transform="translate(28.333333333333336,123.31666666666669)" d="M3.873,0A3.873,3.873,0,1,1,-3.873,0A3.873,3.873,0,1,1,3.873,0" fill="#2563eb" stroke-width="2" opacity="0.7"/><path aria-label="corpus: 1M; Citation score: 0.345; system: vanilla RAG" role="graphics-symbol" aria-roledescription="point" transform="translate(85,151.08333333333334)" d="M3.873,0A3.873,3.873,0,1,1,-3.873,0A3.873,3.873,0,1,1,3.873,0" fill="#2563eb" stroke-width="2" opacity="0.7"/><path aria-label="corpus: 2M; Citation score: 0.334; system: vanilla RAG" role="graphics-symbol" aria-roledescription="point" transform="translate(141.66666666666666,154.07777777777775)" d="M3.873,0A3.873,3.873,0,1,1,-3.873,0A3.873,3.873,0,1,1,3.873,0" fill="#2563eb" stroke-width="2" opacity="0.7"/><path aria-label="corpus: 100K; Citation score: 0.559; system: long-context" role="graphics-symbol" aria-roledescription="point" transform="translate(28.333333333333336,92.82777777777777)" d="M3.873,0A3.873,3.873,0,1,1,-3.873,0A3.873,3.873,0,1,1,3.873,0" fill="#dc2626" stroke-width="2" opacity="0.7"/><path aria-label="corpus: 1M; Citation score: 0.163; system: long-context" role="graphics-symbol" aria-roledescription="point" transform="translate(85,200.62777777777777)" d="M3.873,0A3.873,3.873,0,1,1,-3.873,0A3.873,3.873,0,1,1,3.873,0" fill="#dc2626" stroke-width="2" opacity="0.7"/><path aria-label="corpus: 2M; Citation score: 0.086; system: long-context" role="graphics-symbol" aria-roledescription="point" transform="translate(141.66666666666666,221.5888888888889)" d="M3.873,0A3.873,3.873,0,1,1,-3.873,0A3.873,3.873,0,1,1,3.873,0" fill="#dc2626" stroke-width="2" opacity="0.7"/></g></g><path class="foreground" aria-hidden="true" d="" display="none"/></g></g><g class="mark-group role-legend" role="graphics-symbol" aria-roledescription="legend" aria-label="Symbol legend for fill color and stroke color with 4 values: CSM, hybrid RAG, vanilla RAG, long-context"><g transform="translate(0,277)"><path class="background" aria-hidden="true" d="M0,0h448v13h-448Z" pointer-events="none"/><g><g class="mark-group role-legend-entry"><g transform="translate(0,0)"><path class="background" aria-hidden="true" d="M0,0h0v0h0Z" pointer-events="none"/><g><g class="mark-group role-scope" role="graphics-object" aria-roledescription="group mark container"><g transform="translate(0,0.25)"><path class="background" aria-hidden="true" d="M0,0h45v12.5h-45Z" pointer-events="none" opacity="1"/><g><g class="mark-symbol role-legend-symbol" pointer-events="none"><path transform="translate(6.5,6.5)" d="M-5,0L5,0" fill="#0e7c66" stroke="#0e7c66" stroke-width="3" opacity="0.7"/></g><g class="mark-text role-legend-label" pointer-events="none"><text text-anchor="start" transform="translate(17,10.5)" font-family="sans-serif" font-size="12px" fill="#000" opacity="1">CSM</text></g></g><path class="foreground" aria-hidden="true" d="" pointer-events="none" display="none"/></g><g transform="translate(57,0.25)"><path class="background" aria-hidden="true" d="M0,0h113v12.5h-113Z" pointer-events="none" opacity="1"/><g><g class="mark-symbol role-legend-symbol" pointer-events="none"><path transform="translate(6.5,6.5)" d="M-5,0L5,0" fill="#f59e0b" stroke="#f59e0b" stroke-width="3" opacity="0.7"/></g><g class="mark-text role-legend-label" pointer-events="none"><text text-anchor="start" transform="translate(17,10.5)" font-family="sans-serif" font-size="12px" fill="#000" opacity="1">hybrid RAG</text></g></g><path class="foreground" aria-hidden="true" d="" pointer-events="none" display="none"/></g><g transform="translate(182,0.25)"><path class="background" aria-hidden="true" d="M0,0h122v12.5h-122Z" pointer-events="none" opacity="1"/><g><g class="mark-symbol role-legend-symbol" pointer-events="none"><path transform="translate(6.5,6.5)" d="M-5,0L5,0" fill="#2563eb" stroke="#2563eb" stroke-width="3" opacity="0.7"/></g><g class="mark-text role-legend-label" pointer-events="none"><text text-anchor="start" transform="translate(17,10.5)" font-family="sans-serif" font-size="12px" fill="#000" opacity="1">vanilla RAG</text></g></g><path class="foreground" aria-hidden="true" d="" pointer-events="none" display="none"/></g><g transform="translate(316,0.25)"><path class="background" aria-hidden="true" d="M0,0h132v12.5h-132Z" pointer-events="none" opacity="1"/><g><g class="mark-symbol role-legend-symbol" pointer-events="none"><path transform="translate(6.5,6.5)" d="M-5,0L5,0" fill="#dc2626" stroke="#dc2626" stroke-width="3" opacity="0.7"/></g><g class="mark-text role-legend-label" pointer-events="none"><text text-anchor="start" transform="translate(17,10.5)" font-family="sans-serif" font-size="12px" fill="#000" opacity="1">long-context</text></g></g><path class="foreground" aria-hidden="true" d="" pointer-events="none" display="none"/></g></g></g><path class="foreground" aria-hidden="true" d="" pointer-events="none" display="none"/></g></g></g><path class="foreground" aria-hidden="true" d="" pointer-events="none" display="none"/></g></g><g class="mark-group role-title"><g transform="translate(-47,-57)"><path class="background" aria-hidden="true" d="M0,0h0v0h0Z" pointer-events="none"/><g><g class="mark-text role-title-text" role="graphics-symbol" aria-roledescription="title" aria-label="Title text 'Gemini 3.5 Flash: citation grounding detail'" pointer-events="none"><text text-anchor="start" transform="translate(0,12)" font-family="sans-serif" font-size="15px" font-weight="bold" fill="#000" opacity="1">Gemini 3.5 Flash: citation grounding detail</text></g><g class="mark-text role-title-subtitle" role="graphics-symbol" aria-roledescription="subtitle" aria-label="Subtitle text 'Precision, recall, and F1 from exact gold source-event citations'" pointer-events="none"><text text-anchor="start" transform="translate(0,27)" font-family="sans-serif" font-size="11px" fill="#6b7280" opacity="1">Precision, recall, and F1 from exact gold source-event citations</text></g></g><path class="foreground" aria-hidden="true" d="" pointer-events="none" display="none"/></g></g></g><path class="foreground" aria-hidden="true" d="" display="none"/></g></g></g></svg>