<svg xmlns="http://www.w3.org/2000/svg" xmlns:xlink="http://www.w3.org/1999/xlink" version="1.1" class="marks" width="667" height="407" viewBox="0 0 667 407"><rect width="667" height="407" fill="white"/><g fill="none" stroke-miterlimit="10" transform="translate(58,51)"><g class="mark-group role-frame root" role="graphics-object" aria-roledescription="group mark container"><g transform="translate(0,0)"><path class="background" aria-hidden="true" d="M0.5,0.5h560v285h-560Z" stroke="#ddd"/><g><g class="mark-group role-axis" aria-hidden="true"><g transform="translate(0.5,0.5)"><path class="background" aria-hidden="true" d="M0,0h0v0h0Z" pointer-events="none"/><g><g class="mark-rule role-axis-grid" pointer-events="none"><line transform="translate(0,285)" x2="560" y2="0" stroke="#eef2f7" stroke-width="1" opacity="1"/><line transform="translate(0,228)" x2="560" y2="0" stroke="#eef2f7" stroke-width="1" opacity="1"/><line transform="translate(0,171)" x2="560" y2="0" stroke="#eef2f7" stroke-width="1" opacity="1"/><line transform="translate(0,114)" x2="560" y2="0" stroke="#eef2f7" stroke-width="1" opacity="1"/><line transform="translate(0,57)" x2="560" y2="0" stroke="#eef2f7" stroke-width="1" opacity="1"/><line transform="translate(0,0)" x2="560" y2="0" stroke="#eef2f7" stroke-width="1" opacity="1"/></g></g><path class="foreground" aria-hidden="true" d="" pointer-events="none" display="none"/></g></g><g class="mark-group role-axis" role="graphics-symbol" aria-roledescription="axis" aria-label="X-axis titled 'BABILong cell' for a discrete scale with 4 values: task1 4K, task1 8K, task2 4K, task2 8K"><g transform="translate(0.5,285.5)"><path class="background" aria-hidden="true" d="M0,0h0v0h0Z" pointer-events="none"/><g><g class="mark-rule role-axis-tick" pointer-events="none"><line transform="translate(80,0)" x2="0" y2="5" stroke="#888" stroke-width="1" opacity="1"/><line transform="translate(213,0)" x2="0" y2="5" stroke="#888" stroke-width="1" opacity="1"/><line transform="translate(346,0)" x2="0" y2="5" stroke="#888" stroke-width="1" opacity="1"/><line transform="translate(479,0)" x2="0" y2="5" stroke="#888" stroke-width="1" opacity="1"/></g><g class="mark-text role-axis-label" pointer-events="none"><text text-anchor="middle" transform="translate(79.50000000000004,16)" font-family="sans-serif" font-size="12px" fill="#000" opacity="1">task1 4K</text><text text-anchor="middle" transform="translate(212.83333333333337,16)" font-family="sans-serif" font-size="12px" fill="#000" opacity="1">task1 8K</text><text text-anchor="middle" transform="translate(346.1666666666667,16)" font-family="sans-serif" font-size="12px" fill="#000" opacity="1">task2 4K</text><text text-anchor="middle" transform="translate(479.49999999999994,16)" font-family="sans-serif" font-size="12px" fill="#000" opacity="1">task2 8K</text></g><g class="mark-rule role-axis-domain" pointer-events="none"><line transform="translate(0,0)" x2="560" y2="0" stroke="#888" stroke-width="1" opacity="1"/></g><g class="mark-text role-axis-title" pointer-events="none"><text text-anchor="middle" transform="translate(280,31)" font-family="sans-serif" font-size="12px" font-weight="bold" fill="#000" opacity="1">BABILong cell</text></g></g><path class="foreground" aria-hidden="true" d="" pointer-events="none" display="none"/></g></g><g class="mark-group role-axis" role="graphics-symbol" aria-roledescription="axis" aria-label="Y-axis titled 'Exact-match accuracy (%)' for a linear scale with values from 0 to 100"><g transform="translate(0.5,0.5)"><path class="background" aria-hidden="true" d="M0,0h0v0h0Z" pointer-events="none"/><g><g class="mark-rule role-axis-tick" pointer-events="none"><line transform="translate(0,285)" x2="-5" y2="0" stroke="#888" stroke-width="1" opacity="1"/><line transform="translate(0,228)" x2="-5" y2="0" stroke="#888" stroke-width="1" opacity="1"/><line transform="translate(0,171)" x2="-5" y2="0" stroke="#888" stroke-width="1" opacity="1"/><line transform="translate(0,114)" x2="-5" y2="0" stroke="#888" stroke-width="1" opacity="1"/><line transform="translate(0,57)" x2="-5" y2="0" stroke="#888" stroke-width="1" opacity="1"/><line transform="translate(0,0)" x2="-5" y2="0" stroke="#888" stroke-width="1" opacity="1"/></g><g class="mark-text role-axis-label" pointer-events="none"><text text-anchor="end" transform="translate(-7,288)" font-family="sans-serif" font-size="11px" fill="#000" opacity="1">0</text><text text-anchor="end" transform="translate(-7,231)" font-family="sans-serif" font-size="11px" fill="#000" opacity="1">20</text><text text-anchor="end" transform="translate(-7,174)" font-family="sans-serif" font-size="11px" fill="#000" opacity="1">40</text><text text-anchor="end" transform="translate(-7,117)" font-family="sans-serif" font-size="11px" fill="#000" opacity="1">60</text><text text-anchor="end" transform="translate(-7,59.999999999999986)" font-family="sans-serif" font-size="11px" fill="#000" opacity="1">80</text><text text-anchor="end" transform="translate(-7,3)" font-family="sans-serif" font-size="11px" fill="#000" opacity="1">100</text></g><g class="mark-rule role-axis-domain" pointer-events="none"><line transform="translate(0,285)" x2="0" y2="-285" stroke="#888" stroke-width="1" opacity="1"/></g><g class="mark-text role-axis-title" pointer-events="none"><text text-anchor="middle" transform="translate(-37,142.5) rotate(-90) translate(0,-3)" font-family="sans-serif" font-size="12px" font-weight="bold" fill="#000" opacity="1">Exact-match accuracy (%)</text></g></g><path class="foreground" aria-hidden="true" d="" pointer-events="none" display="none"/></g></g><g class="mark-group role-scope" role="graphics-object" aria-roledescription="group mark container"><g transform="translate(26.666666666666714,0)"><path class="background" aria-hidden="true" d="M3,0L50.33333333333333,0C51.98907840681533,0,53.33333333333333,1.344254926518,53.33333333333333,3L53.33333333333333,285C53.33333333333333,285,53.33333333333333,285,53.33333333333333,285L0,285C0,285,0,285,0,285L0,3C0,1.344254926518,1.344254926518,0,3,0Z"/><g clip-path="url(#clip6)"><g class="mark-group role-scope" role="graphics-object" aria-roledescription="group mark container"><g transform="translate(0,0)"><path class="background" aria-hidden="true" d="M0,0h53.33333333333333v0h-53.33333333333333Z"/><g><g class="mark-rect role-mark layer_0_marks" role="graphics-object" aria-roledescription="rect mark container"><path aria-label="BABILong cell: task1 4K; Exact-match accuracy (%): 100; run: before bridge" role="graphics-symbol" aria-roledescription="bar" d="M0,0h53.33333333333333v285h-53.33333333333333Z" fill="#94a3b8"/></g></g><path class="foreground" aria-hidden="true" d="" display="none"/></g></g></g><path class="foreground" aria-hidden="true" d="" display="none"/></g><g transform="translate(160.00000000000003,0)"><path class="background" aria-hidden="true" d="M3,0L50.33333333333333,0C51.98907840681533,0,53.33333333333333,1.344254926518,53.33333333333333,3L53.33333333333333,285C53.33333333333333,285,53.33333333333333,285,53.33333333333333,285L0,285C0,285,0,285,0,285L0,3C0,1.344254926518,1.344254926518,0,3,0Z"/><g clip-path="url(#clip7)"><g class="mark-group role-scope" role="graphics-object" aria-roledescription="group mark container"><g transform="translate(0,0)"><path class="background" aria-hidden="true" d="M0,0h53.33333333333333v0h-53.33333333333333Z"/><g><g class="mark-rect role-mark layer_0_marks" role="graphics-object" aria-roledescription="rect mark container"><path aria-label="BABILong cell: task1 8K; Exact-match accuracy (%): 100; run: before bridge" role="graphics-symbol" aria-roledescription="bar" d="M0,0h53.33333333333333v285h-53.33333333333333Z" fill="#94a3b8"/></g></g><path class="foreground" aria-hidden="true" d="" display="none"/></g></g></g><path class="foreground" aria-hidden="true" d="" display="none"/></g><g transform="translate(293.33333333333337,256.5)"><path class="background" aria-hidden="true" d="M3,0L50.33333333333333,0C51.98907840681533,0,53.33333333333333,1.344254926518,53.33333333333333,3L53.33333333333333,28.5C53.33333333333333,28.5,53.33333333333333,28.5,53.33333333333333,28.5L0,28.5C0,28.5,0,28.5,0,28.5L0,3C0,1.344254926518,1.344254926518,0,3,0Z"/><g clip-path="url(#clip8)"><g class="mark-group role-scope" role="graphics-object" aria-roledescription="group mark container"><g transform="translate(0,-256.5)"><path class="background" aria-hidden="true" d="M0,0h53.33333333333333v0h-53.33333333333333Z"/><g><g class="mark-rect role-mark layer_0_marks" role="graphics-object" aria-roledescription="rect mark container"><path aria-label="BABILong cell: task2 4K; Exact-match accuracy (%): 10; run: before bridge" role="graphics-symbol" aria-roledescription="bar" d="M0,256.5h53.33333333333333v28.5h-53.33333333333333Z" fill="#94a3b8"/></g></g><path class="foreground" aria-hidden="true" d="" display="none"/></g></g></g><path class="foreground" aria-hidden="true" d="" display="none"/></g><g transform="translate(426.66666666666663,285)"><path class="background" aria-hidden="true" d="M0,0h53.33333333333333v0h-53.33333333333333Z"/><g clip-path="url(#clip9)"><g class="mark-group role-scope" role="graphics-object" aria-roledescription="group mark container"><g transform="translate(0,-285)"><path class="background" aria-hidden="true" d="M0,0h53.33333333333333v0h-53.33333333333333Z"/><g><g class="mark-rect role-mark layer_0_marks" role="graphics-object" aria-roledescription="rect mark container"><path aria-label="BABILong cell: task2 8K; Exact-match accuracy (%): 0; run: before bridge" role="graphics-symbol" aria-roledescription="bar" d="M0,285h53.33333333333333v0h-53.33333333333333Z" fill="#94a3b8"/></g></g><path class="foreground" aria-hidden="true" d="" display="none"/></g></g></g><path class="foreground" aria-hidden="true" d="" display="none"/></g><g transform="translate(80.00000000000004,0)"><path class="background" aria-hidden="true" d="M3,0L50.33333333333333,0C51.98907840681533,0,53.33333333333333,1.344254926518,53.33333333333333,3L53.33333333333333,285C53.33333333333333,285,53.33333333333333,285,53.33333333333333,285L0,285C0,285,0,285,0,285L0,3C0,1.344254926518,1.344254926518,0,3,0Z"/><g clip-path="url(#clip10)"><g class="mark-group role-scope" role="graphics-object" aria-roledescription="group mark container"><g transform="translate(0,0)"><path class="background" aria-hidden="true" d="M0,0h53.33333333333333v0h-53.33333333333333Z"/><g><g class="mark-rect role-mark layer_0_marks" role="graphics-object" aria-roledescription="rect mark container"><path aria-label="BABILong cell: task1 4K; Exact-match accuracy (%): 100; run: entity bridge" role="graphics-symbol" aria-roledescription="bar" d="M0,0h53.33333333333333v285h-53.33333333333333Z" fill="#0e7c66"/></g></g><path class="foreground" aria-hidden="true" d="" display="none"/></g></g></g><path class="foreground" aria-hidden="true" d="" display="none"/></g><g transform="translate(213.33333333333337,0)"><path class="background" aria-hidden="true" d="M3,0L50.33333333333333,0C51.98907840681533,0,53.33333333333333,1.344254926518,53.33333333333333,3L53.33333333333333,285C53.33333333333333,285,53.33333333333333,285,53.33333333333333,285L0,285C0,285,0,285,0,285L0,3C0,1.344254926518,1.344254926518,0,3,0Z"/><g clip-path="url(#clip11)"><g class="mark-group role-scope" role="graphics-object" aria-roledescription="group mark container"><g transform="translate(0,0)"><path class="background" aria-hidden="true" d="M0,0h53.33333333333333v0h-53.33333333333333Z"/><g><g class="mark-rect role-mark layer_0_marks" role="graphics-object" aria-roledescription="rect mark container"><path aria-label="BABILong cell: task1 8K; Exact-match accuracy (%): 100; run: entity bridge" role="graphics-symbol" aria-roledescription="bar" d="M0,0h53.33333333333333v285h-53.33333333333333Z" fill="#0e7c66"/></g></g><path class="foreground" aria-hidden="true" d="" display="none"/></g></g></g><path class="foreground" aria-hidden="true" d="" display="none"/></g><g transform="translate(346.6666666666667,114)"><path class="background" aria-hidden="true" d="M3,0L50.33333333333333,0C51.98907840681533,0,53.33333333333333,1.344254926518,53.33333333333333,3L53.33333333333333,171C53.33333333333333,171,53.33333333333333,171,53.33333333333333,171L0,171C0,171,0,171,0,171L0,3C0,1.344254926518,1.344254926518,0,3,0Z"/><g clip-path="url(#clip12)"><g class="mark-group role-scope" role="graphics-object" aria-roledescription="group mark container"><g transform="translate(0,-114)"><path class="background" aria-hidden="true" d="M0,0h53.33333333333333v0h-53.33333333333333Z"/><g><g class="mark-rect role-mark layer_0_marks" role="graphics-object" aria-roledescription="rect mark container"><path aria-label="BABILong cell: task2 4K; Exact-match accuracy (%): 60; run: entity bridge" role="graphics-symbol" aria-roledescription="bar" d="M0,114h53.33333333333333v171h-53.33333333333333Z" fill="#0e7c66"/></g></g><path class="foreground" aria-hidden="true" d="" display="none"/></g></g></g><path class="foreground" aria-hidden="true" d="" display="none"/></g><g transform="translate(479.99999999999994,133.09500000000003)"><path class="background" aria-hidden="true" d="M3,0L50.33333333333333,0C51.98907840681533,0,53.33333333333333,1.344254926518,53.33333333333333,3L53.33333333333333,151.90499999999997C53.33333333333333,151.90499999999997,53.33333333333333,151.90499999999997,53.33333333333333,151.90499999999997L0,151.90499999999997C0,151.90499999999997,0,151.90499999999997,0,151.90499999999997L0,3C0,1.344254926518,1.344254926518,0,3,0Z"/><g clip-path="url(#clip13)"><g class="mark-group role-scope" role="graphics-object" aria-roledescription="group mark container"><g transform="translate(0,-133.09500000000003)"><path class="background" aria-hidden="true" d="M0,0h53.33333333333333v0h-53.33333333333333Z"/><g><g class="mark-rect role-mark layer_0_marks" role="graphics-object" aria-roledescription="rect mark container"><path aria-label="BABILong cell: task2 8K; Exact-match accuracy (%): 53.3; run: entity bridge" role="graphics-symbol" aria-roledescription="bar" d="M0,133.09500000000003h53.33333333333333v151.90499999999997h-53.33333333333333Z" fill="#0e7c66"/></g></g><path class="foreground" aria-hidden="true" d="" display="none"/></g></g></g><path class="foreground" aria-hidden="true" d="" display="none"/></g></g><g class="mark-text role-mark layer_1_marks" role="graphics-object" aria-roledescription="text mark container"><text aria-label="BABILong cell: task1 4K; Exact-match accuracy (%): 100; run: before bridge; acc: 100" role="graphics-symbol" aria-roledescription="text mark" text-anchor="middle" transform="translate(53.33333333333338,-2)" font-family="sans-serif" font-size="10px" font-weight="bold" fill="#94a3b8">100</text><text aria-label="BABILong cell: task1 8K; Exact-match accuracy (%): 100; run: before bridge; acc: 100" role="graphics-symbol" aria-roledescription="text mark" text-anchor="middle" transform="translate(186.66666666666669,-2)" font-family="sans-serif" font-size="10px" font-weight="bold" fill="#94a3b8">100</text><text aria-label="BABILong cell: task2 4K; Exact-match accuracy (%): 10; run: before bridge; acc: 10" role="graphics-symbol" aria-roledescription="text mark" text-anchor="middle" transform="translate(320.00000000000006,254.5)" font-family="sans-serif" font-size="10px" font-weight="bold" fill="#94a3b8">10</text><text aria-label="BABILong cell: task2 8K; Exact-match accuracy (%): 0; run: before bridge; acc: 0" role="graphics-symbol" aria-roledescription="text mark" text-anchor="middle" transform="translate(453.3333333333333,283)" font-family="sans-serif" font-size="10px" font-weight="bold" fill="#94a3b8">0</text><text aria-label="BABILong cell: task1 4K; Exact-match accuracy (%): 100; run: entity bridge; acc: 100" role="graphics-symbol" aria-roledescription="text mark" text-anchor="middle" transform="translate(106.66666666666671,-2)" font-family="sans-serif" font-size="10px" font-weight="bold" fill="#0e7c66">100</text><text aria-label="BABILong cell: task1 8K; Exact-match accuracy (%): 100; run: entity bridge; acc: 100" role="graphics-symbol" aria-roledescription="text mark" text-anchor="middle" transform="translate(240.00000000000003,-2)" font-family="sans-serif" font-size="10px" font-weight="bold" fill="#0e7c66">100</text><text aria-label="BABILong cell: task2 4K; Exact-match accuracy (%): 60; run: entity bridge; acc: 60" role="graphics-symbol" aria-roledescription="text mark" text-anchor="middle" transform="translate(373.33333333333337,112)" font-family="sans-serif" font-size="10px" font-weight="bold" fill="#0e7c66">60</text><text aria-label="BABILong cell: task2 8K; Exact-match accuracy (%): 53.3; run: entity bridge; acc: 53" role="graphics-symbol" aria-roledescription="text mark" text-anchor="middle" transform="translate(506.66666666666663,131.09500000000003)" font-family="sans-serif" font-size="10px" font-weight="bold" fill="#0e7c66">53</text></g><g class="mark-group role-legend" role="graphics-symbol" aria-roledescription="legend" aria-label="Symbol legend for fill color with 2 values: before bridge, entity bridge"><g transform="translate(0,336)"><path class="background" aria-hidden="true" d="M0,0h290v12h-290Z" pointer-events="none"/><g><g class="mark-group role-legend-entry"><g transform="translate(0,0)"><path class="background" aria-hidden="true" d="M0,0h0v0h0Z" pointer-events="none"/><g><g class="mark-group role-scope" role="graphics-object" aria-roledescription="group mark container"><g transform="translate(0,0)"><path class="background" aria-hidden="true" d="M0,0h140v12h-140Z" pointer-events="none" opacity="1"/><g><g class="mark-symbol role-legend-symbol" pointer-events="none"><path transform="translate(6,6)" d="M5,0A5,5,0,1,1,-5,0A5,5,0,1,1,5,0" fill="#94a3b8" stroke-width="1.5" opacity="1"/></g><g class="mark-text role-legend-label" pointer-events="none"><text text-anchor="start" transform="translate(16,10)" font-family="sans-serif" font-size="12px" fill="#000" opacity="1">before bridge</text></g></g><path class="foreground" aria-hidden="true" d="" pointer-events="none" display="none"/></g><g transform="translate(150,0)"><path class="background" aria-hidden="true" d="M0,0h140v12h-140Z" pointer-events="none" opacity="1"/><g><g class="mark-symbol role-legend-symbol" pointer-events="none"><path transform="translate(6,6)" d="M5,0A5,5,0,1,1,-5,0A5,5,0,1,1,5,0" fill="#0e7c66" stroke-width="1.5" opacity="1"/></g><g class="mark-text role-legend-label" pointer-events="none"><text text-anchor="start" transform="translate(16,10)" font-family="sans-serif" font-size="12px" fill="#000" opacity="1">entity bridge</text></g></g><path class="foreground" aria-hidden="true" d="" pointer-events="none" display="none"/></g></g></g><path class="foreground" aria-hidden="true" d="" pointer-events="none" display="none"/></g></g></g><path class="foreground" aria-hidden="true" d="" pointer-events="none" display="none"/></g></g><g class="mark-group role-title"><g transform="translate(-50,-43)"><path class="background" aria-hidden="true" d="M0,0h0v0h0Z" pointer-events="none"/><g><g class="mark-text role-title-text" role="graphics-symbol" aria-roledescription="title" aria-label="Title text 'Gemini 3.5 Flash + CSM on BABILong'" pointer-events="none"><text text-anchor="start" transform="translate(0,12)" font-family="sans-serif" font-size="15px" font-weight="bold" fill="#000" opacity="1">Gemini 3.5 Flash + CSM on BABILong</text></g><g class="mark-text role-title-subtitle" role="graphics-symbol" aria-roledescription="subtitle" aria-label="Subtitle text 'External benchmark subset; entity bridge ablation, 30 rows per task/length'" pointer-events="none"><text text-anchor="start" transform="translate(0,27)" font-family="sans-serif" font-size="11px" fill="#6b7280" opacity="1">External benchmark subset; entity bridge ablation, 30 rows per task/length</text></g></g><path class="foreground" aria-hidden="true" d="" pointer-events="none" display="none"/></g></g></g><path class="foreground" aria-hidden="true" d="" display="none"/></g></g></g><defs><clipPath id="clip6"><path d="M3,0L50.33333333333333,0C51.98907840681533,0,53.33333333333333,1.344254926518,53.33333333333333,3L53.33333333333333,285C53.33333333333333,285,53.33333333333333,285,53.33333333333333,285L0,285C0,285,0,285,0,285L0,3C0,1.344254926518,1.344254926518,0,3,0Z"/></clipPath><clipPath id="clip7"><path d="M3,0L50.33333333333333,0C51.98907840681533,0,53.33333333333333,1.344254926518,53.33333333333333,3L53.33333333333333,285C53.33333333333333,285,53.33333333333333,285,53.33333333333333,285L0,285C0,285,0,285,0,285L0,3C0,1.344254926518,1.344254926518,0,3,0Z"/></clipPath><clipPath id="clip8"><path d="M3,0L50.33333333333333,0C51.98907840681533,0,53.33333333333333,1.344254926518,53.33333333333333,3L53.33333333333333,28.5C53.33333333333333,28.5,53.33333333333333,28.5,53.33333333333333,28.5L0,28.5C0,28.5,0,28.5,0,28.5L0,3C0,1.344254926518,1.344254926518,0,3,0Z"/></clipPath><clipPath id="clip9"><path d="M0,0h53.33333333333333v0h-53.33333333333333Z"/></clipPath><clipPath id="clip10"><path d="M3,0L50.33333333333333,0C51.98907840681533,0,53.33333333333333,1.344254926518,53.33333333333333,3L53.33333333333333,285C53.33333333333333,285,53.33333333333333,285,53.33333333333333,285L0,285C0,285,0,285,0,285L0,3C0,1.344254926518,1.344254926518,0,3,0Z"/></clipPath><clipPath id="clip11"><path d="M3,0L50.33333333333333,0C51.98907840681533,0,53.33333333333333,1.344254926518,53.33333333333333,3L53.33333333333333,285C53.33333333333333,285,53.33333333333333,285,53.33333333333333,285L0,285C0,285,0,285,0,285L0,3C0,1.344254926518,1.344254926518,0,3,0Z"/></clipPath><clipPath id="clip12"><path d="M3,0L50.33333333333333,0C51.98907840681533,0,53.33333333333333,1.344254926518,53.33333333333333,3L53.33333333333333,171C53.33333333333333,171,53.33333333333333,171,53.33333333333333,171L0,171C0,171,0,171,0,171L0,3C0,1.344254926518,1.344254926518,0,3,0Z"/></clipPath><clipPath id="clip13"><path d="M3,0L50.33333333333333,0C51.98907840681533,0,53.33333333333333,1.344254926518,53.33333333333333,3L53.33333333333333,151.90499999999997C53.33333333333333,151.90499999999997,53.33333333333333,151.90499999999997,53.33333333333333,151.90499999999997L0,151.90499999999997C0,151.90499999999997,0,151.90499999999997,0,151.90499999999997L0,3C0,1.344254926518,1.344254926518,0,3,0Z"/></clipPath></defs></svg>