<svg xmlns="http://www.w3.org/2000/svg" xmlns:xlink="http://www.w3.org/1999/xlink" version="1.1" class="marks" width="626" height="431" viewBox="0 0 626 431"><rect width="626" height="431" fill="white"/><g fill="none" stroke-miterlimit="10" transform="translate(58,47)"><g class="mark-group role-frame root" role="graphics-object" aria-roledescription="group mark container"><g transform="translate(0,0)"><path class="background" aria-hidden="true" d="M0.5,0.5h560v315h-560Z" stroke="#ddd"/><g><g class="mark-group role-axis" aria-hidden="true"><g transform="translate(0.5,0.5)"><path class="background" aria-hidden="true" d="M0,0h0v0h0Z" pointer-events="none"/><g><g class="mark-rule role-axis-grid" pointer-events="none"><line transform="translate(0,315)" x2="560" y2="0" stroke="#eef2f7" stroke-width="1" opacity="1"/><line transform="translate(0,252)" x2="560" y2="0" stroke="#eef2f7" stroke-width="1" opacity="1"/><line transform="translate(0,189)" x2="560" y2="0" stroke="#eef2f7" stroke-width="1" opacity="1"/><line transform="translate(0,126)" x2="560" y2="0" stroke="#eef2f7" stroke-width="1" opacity="1"/><line transform="translate(0,63)" x2="560" y2="0" stroke="#eef2f7" stroke-width="1" opacity="1"/><line transform="translate(0,0)" x2="560" y2="0" stroke="#eef2f7" stroke-width="1" opacity="1"/></g></g><path class="foreground" aria-hidden="true" d="" pointer-events="none" display="none"/></g></g><g class="mark-group role-axis" role="graphics-symbol" aria-roledescription="axis" aria-label="X-axis titled 'Corpus size' for a discrete scale with 3 values: 100K, 1M, 2M"><g transform="translate(0.5,315.5)"><path class="background" aria-hidden="true" d="M0,0h0v0h0Z" pointer-events="none"/><g><g class="mark-text role-axis-label" pointer-events="none"><text text-anchor="middle" transform="translate(93.33333333333334,12)" font-family="sans-serif" font-size="13px" fill="#000" opacity="1">100K</text><text text-anchor="middle" transform="translate(280,12)" font-family="sans-serif" font-size="13px" fill="#000" opacity="1">1M</text><text text-anchor="middle" transform="translate(466.66666666666663,12)" font-family="sans-serif" font-size="13px" fill="#000" opacity="1">2M</text></g><g class="mark-text role-axis-title" pointer-events="none"><text text-anchor="middle" transform="translate(280,28)" font-family="sans-serif" font-size="12px" font-weight="bold" fill="#000" opacity="1">Corpus size</text></g></g><path class="foreground" aria-hidden="true" d="" pointer-events="none" display="none"/></g></g><g class="mark-group role-axis" role="graphics-symbol" aria-roledescription="axis" aria-label="Y-axis titled 'Accuracy (%)' for a linear scale with values from 0 to 100"><g transform="translate(0.5,0.5)"><path class="background" aria-hidden="true" d="M0,0h0v0h0Z" pointer-events="none"/><g><g class="mark-rule role-axis-tick" pointer-events="none"><line transform="translate(0,315)" x2="-5" y2="0" stroke="#888" stroke-width="1" opacity="1"/><line transform="translate(0,252)" x2="-5" y2="0" stroke="#888" stroke-width="1" opacity="1"/><line transform="translate(0,189)" x2="-5" y2="0" stroke="#888" stroke-width="1" opacity="1"/><line transform="translate(0,126)" x2="-5" y2="0" stroke="#888" stroke-width="1" opacity="1"/><line transform="translate(0,63)" x2="-5" y2="0" stroke="#888" stroke-width="1" opacity="1"/><line transform="translate(0,0)" x2="-5" y2="0" stroke="#888" stroke-width="1" opacity="1"/></g><g class="mark-text role-axis-label" pointer-events="none"><text text-anchor="end" transform="translate(-7,318)" font-family="sans-serif" font-size="11px" fill="#000" opacity="1">0</text><text text-anchor="end" transform="translate(-7,255)" font-family="sans-serif" font-size="11px" fill="#000" opacity="1">20</text><text text-anchor="end" transform="translate(-7,192)" font-family="sans-serif" font-size="11px" fill="#000" opacity="1">40</text><text text-anchor="end" transform="translate(-7,129)" font-family="sans-serif" font-size="11px" fill="#000" opacity="1">60</text><text text-anchor="end" transform="translate(-7,65.99999999999999)" font-family="sans-serif" font-size="11px" fill="#000" opacity="1">80</text><text text-anchor="end" transform="translate(-7,3)" font-family="sans-serif" font-size="11px" fill="#000" opacity="1">100</text></g><g class="mark-rule role-axis-domain" pointer-events="none"><line transform="translate(0,315)" x2="0" y2="-315" stroke="#888" stroke-width="1" opacity="1"/></g><g class="mark-text role-axis-title" pointer-events="none"><text text-anchor="middle" transform="translate(-37,157.5) rotate(-90) translate(0,-3)" font-family="sans-serif" font-size="12px" font-weight="bold" fill="#000" opacity="1">Accuracy (%)</text></g></g><path class="foreground" aria-hidden="true" d="" pointer-events="none" display="none"/></g></g><g class="mark-group role-scope layer_0_pathgroup" role="graphics-object" aria-roledescription="group mark container"><g transform="translate(0,0)"><path class="background" aria-hidden="true" d="M0,0h560v315h-560Z"/><g><g class="mark-line role-mark layer_0_marks" role="graphics-object" aria-roledescription="line mark container"><path aria-label="Corpus size: 100K; Accuracy (%): 93.3; system: CSM" role="graphics-symbol" aria-roledescription="line mark" d="M93.333,21.105L280,10.395L466.667,21.105" stroke="#0e7c66" stroke-width="3"/></g></g><path class="foreground" aria-hidden="true" d="" display="none"/></g><g transform="translate(0,0)"><path class="background" aria-hidden="true" d="M0,0h560v315h-560Z"/><g><g class="mark-line role-mark layer_0_marks" role="graphics-object" aria-roledescription="line mark container"><path aria-label="Corpus size: 100K; Accuracy (%): 90; system: hybrid RAG" role="graphics-symbol" aria-roledescription="line mark" d="M93.333,31.5L280,31.5L466.667,31.5" stroke="#f59e0b" stroke-width="3"/></g></g><path class="foreground" aria-hidden="true" d="" display="none"/></g><g transform="translate(0,0)"><path class="background" aria-hidden="true" d="M0,0h560v315h-560Z"/><g><g class="mark-line role-mark layer_0_marks" role="graphics-object" aria-roledescription="line mark container"><path aria-label="Corpus size: 100K; Accuracy (%): 93.3; system: vanilla RAG" role="graphics-symbol" aria-roledescription="line mark" d="M93.333,21.105L280,41.895L466.667,41.895" stroke="#2563eb" stroke-width="3"/></g></g><path class="foreground" aria-hidden="true" d="" display="none"/></g><g transform="translate(0,0)"><path class="background" aria-hidden="true" d="M0,0h560v315h-560Z"/><g><g class="mark-line role-mark layer_0_marks" role="graphics-object" aria-roledescription="line mark container"><path aria-label="Corpus size: 100K; Accuracy (%): 100; system: long-context" role="graphics-symbol" aria-roledescription="line mark" d="M93.333,0L280,31.5L466.667,157.5" stroke="#dc2626" stroke-width="3"/></g></g><path class="foreground" aria-hidden="true" d="" display="none"/></g></g><g class="mark-symbol role-mark layer_1_marks" role="graphics-object" aria-roledescription="symbol mark container"><path aria-label="Corpus size: 100K; Accuracy (%): 93.3; system: CSM" role="graphics-symbol" aria-roledescription="point" transform="translate(93.33333333333334,21.105000000000018)" d="M4.61,0A4.61,4.61,0,1,1,-4.61,0A4.61,4.61,0,1,1,4.61,0" fill="#0e7c66" stroke-width="2" opacity="0.7"/><path aria-label="Corpus size: 1M; Accuracy (%): 96.7; system: CSM" role="graphics-symbol" aria-roledescription="point" transform="translate(280,10.394999999999975)" d="M4.61,0A4.61,4.61,0,1,1,-4.61,0A4.61,4.61,0,1,1,4.61,0" fill="#0e7c66" stroke-width="2" opacity="0.7"/><path aria-label="Corpus size: 2M; Accuracy (%): 93.3; system: CSM" role="graphics-symbol" aria-roledescription="point" transform="translate(466.66666666666663,21.105000000000018)" d="M4.61,0A4.61,4.61,0,1,1,-4.61,0A4.61,4.61,0,1,1,4.61,0" fill="#0e7c66" stroke-width="2" opacity="0.7"/><path aria-label="Corpus size: 100K; Accuracy (%): 90; system: hybrid RAG" role="graphics-symbol" aria-roledescription="point" transform="translate(93.33333333333334,31.499999999999993)" d="M4.61,0A4.61,4.61,0,1,1,-4.61,0A4.61,4.61,0,1,1,4.61,0" fill="#f59e0b" stroke-width="2" opacity="0.7"/><path aria-label="Corpus size: 1M; Accuracy (%): 90; system: hybrid RAG" role="graphics-symbol" aria-roledescription="point" transform="translate(280,31.499999999999993)" d="M4.61,0A4.61,4.61,0,1,1,-4.61,0A4.61,4.61,0,1,1,4.61,0" fill="#f59e0b" stroke-width="2" opacity="0.7"/><path aria-label="Corpus size: 2M; Accuracy (%): 90; system: hybrid RAG" role="graphics-symbol" aria-roledescription="point" transform="translate(466.66666666666663,31.499999999999993)" d="M4.61,0A4.61,4.61,0,1,1,-4.61,0A4.61,4.61,0,1,1,4.61,0" fill="#f59e0b" stroke-width="2" opacity="0.7"/><path aria-label="Corpus size: 100K; Accuracy (%): 93.3; system: vanilla RAG" role="graphics-symbol" aria-roledescription="point" transform="translate(93.33333333333334,21.105000000000018)" d="M4.61,0A4.61,4.61,0,1,1,-4.61,0A4.61,4.61,0,1,1,4.61,0" fill="#2563eb" stroke-width="2" opacity="0.7"/><path aria-label="Corpus size: 1M; Accuracy (%): 86.7; system: vanilla RAG" role="graphics-symbol" aria-roledescription="point" transform="translate(280,41.895)" d="M4.61,0A4.61,4.61,0,1,1,-4.61,0A4.61,4.61,0,1,1,4.61,0" fill="#2563eb" stroke-width="2" opacity="0.7"/><path aria-label="Corpus size: 2M; Accuracy (%): 86.7; system: vanilla RAG" role="graphics-symbol" aria-roledescription="point" transform="translate(466.66666666666663,41.895)" d="M4.61,0A4.61,4.61,0,1,1,-4.61,0A4.61,4.61,0,1,1,4.61,0" fill="#2563eb" stroke-width="2" opacity="0.7"/><path aria-label="Corpus size: 100K; Accuracy (%): 100; system: long-context" role="graphics-symbol" aria-roledescription="point" transform="translate(93.33333333333334,0)" d="M4.61,0A4.61,4.61,0,1,1,-4.61,0A4.61,4.61,0,1,1,4.61,0" fill="#dc2626" stroke-width="2" opacity="0.7"/><path aria-label="Corpus size: 1M; Accuracy (%): 90; system: long-context" role="graphics-symbol" aria-roledescription="point" transform="translate(280,31.499999999999993)" d="M4.61,0A4.61,4.61,0,1,1,-4.61,0A4.61,4.61,0,1,1,4.61,0" fill="#dc2626" stroke-width="2" opacity="0.7"/><path aria-label="Corpus size: 2M; Accuracy (%): 50; system: long-context" role="graphics-symbol" aria-roledescription="point" transform="translate(466.66666666666663,157.5)" d="M4.61,0A4.61,4.61,0,1,1,-4.61,0A4.61,4.61,0,1,1,4.61,0" fill="#dc2626" stroke-width="2" opacity="0.7"/></g><g class="mark-text role-mark layer_2_marks" role="graphics-object" aria-roledescription="text mark container"><text aria-label="Corpus size: 2M; Accuracy (%): 93.3; system: CSM; correct: 28" role="graphics-symbol" aria-roledescription="text mark" text-anchor="start" transform="translate(475.66666666666663,24.105000000000018)" font-family="sans-serif" font-size="11px" font-weight="bold" fill="#0e7c66">28</text><text aria-label="Corpus size: 2M; Accuracy (%): 90; system: hybrid RAG; correct: 27" role="graphics-symbol" aria-roledescription="text mark" text-anchor="start" transform="translate(475.66666666666663,34.49999999999999)" font-family="sans-serif" font-size="11px" font-weight="bold" fill="#f59e0b">27</text><text aria-label="Corpus size: 2M; Accuracy (%): 86.7; system: vanilla RAG; correct: 26" role="graphics-symbol" aria-roledescription="text mark" text-anchor="start" transform="translate(475.66666666666663,44.895)" font-family="sans-serif" font-size="11px" font-weight="bold" fill="#2563eb">26</text><text aria-label="Corpus size: 2M; Accuracy (%): 50; system: long-context; correct: 15" role="graphics-symbol" aria-roledescription="text mark" text-anchor="start" transform="translate(475.66666666666663,160.5)" font-family="sans-serif" font-size="11px" font-weight="bold" fill="#dc2626">15</text></g><g class="mark-group role-legend" role="graphics-symbol" aria-roledescription="legend" aria-label="Symbol legend for fill color and stroke color with 4 values: CSM, hybrid RAG, vanilla RAG, long-context"><g transform="translate(0,363)"><path class="background" aria-hidden="true" d="M0,0h448v13h-448Z" pointer-events="none"/><g><g class="mark-group role-legend-entry"><g transform="translate(0,0)"><path class="background" aria-hidden="true" d="M0,0h0v0h0Z" pointer-events="none"/><g><g class="mark-group role-scope" role="graphics-object" aria-roledescription="group mark container"><g transform="translate(0,0.25)"><path class="background" aria-hidden="true" d="M0,0h45v12.5h-45Z" pointer-events="none" opacity="1"/><g><g class="mark-symbol role-legend-symbol" pointer-events="none"><path transform="translate(6.5,6.5)" d="M-5,0L5,0" fill="#0e7c66" stroke="#0e7c66" stroke-width="3" opacity="0.7"/></g><g class="mark-text role-legend-label" pointer-events="none"><text text-anchor="start" transform="translate(17,10.5)" font-family="sans-serif" font-size="12px" fill="#000" opacity="1">CSM</text></g></g><path class="foreground" aria-hidden="true" d="" pointer-events="none" display="none"/></g><g transform="translate(57,0.25)"><path class="background" aria-hidden="true" d="M0,0h113v12.5h-113Z" pointer-events="none" opacity="1"/><g><g class="mark-symbol role-legend-symbol" pointer-events="none"><path transform="translate(6.5,6.5)" d="M-5,0L5,0" fill="#f59e0b" stroke="#f59e0b" stroke-width="3" opacity="0.7"/></g><g class="mark-text role-legend-label" pointer-events="none"><text text-anchor="start" transform="translate(17,10.5)" font-family="sans-serif" font-size="12px" fill="#000" opacity="1">hybrid RAG</text></g></g><path class="foreground" aria-hidden="true" d="" pointer-events="none" display="none"/></g><g transform="translate(182,0.25)"><path class="background" aria-hidden="true" d="M0,0h122v12.5h-122Z" pointer-events="none" opacity="1"/><g><g class="mark-symbol role-legend-symbol" pointer-events="none"><path transform="translate(6.5,6.5)" d="M-5,0L5,0" fill="#2563eb" stroke="#2563eb" stroke-width="3" opacity="0.7"/></g><g class="mark-text role-legend-label" pointer-events="none"><text text-anchor="start" transform="translate(17,10.5)" font-family="sans-serif" font-size="12px" fill="#000" opacity="1">vanilla RAG</text></g></g><path class="foreground" aria-hidden="true" d="" pointer-events="none" display="none"/></g><g transform="translate(316,0.25)"><path class="background" aria-hidden="true" d="M0,0h132v12.5h-132Z" pointer-events="none" opacity="1"/><g><g class="mark-symbol role-legend-symbol" pointer-events="none"><path transform="translate(6.5,6.5)" d="M-5,0L5,0" fill="#dc2626" stroke="#dc2626" stroke-width="3" opacity="0.7"/></g><g class="mark-text role-legend-label" pointer-events="none"><text text-anchor="start" transform="translate(17,10.5)" font-family="sans-serif" font-size="12px" fill="#000" opacity="1">long-context</text></g></g><path class="foreground" aria-hidden="true" d="" pointer-events="none" display="none"/></g></g></g><path class="foreground" aria-hidden="true" d="" pointer-events="none" display="none"/></g></g></g><path class="foreground" aria-hidden="true" d="" pointer-events="none" display="none"/></g></g><g class="mark-group role-title"><g transform="translate(-50,-39)"><path class="background" aria-hidden="true" d="M0,0h0v0h0Z" pointer-events="none"/><g><g class="mark-text role-title-text" role="graphics-symbol" aria-roledescription="title" aria-label="Title text 'Gemini 3.5 Flash: accuracy as corpus scales'" pointer-events="none"><text text-anchor="start" transform="translate(0,12)" font-family="sans-serif" font-size="15px" font-weight="bold" fill="#000" opacity="1">Gemini 3.5 Flash: accuracy as corpus scales</text></g><g class="mark-text role-title-subtitle" role="graphics-symbol" aria-roledescription="subtitle" aria-label="Subtitle text 'Same 30 PaySwift queries; native model context capped at 160K tokens'" pointer-events="none"><text text-anchor="start" transform="translate(0,27)" font-family="sans-serif" font-size="11px" fill="#6b7280" opacity="1">Same 30 PaySwift queries; native model context capped at 160K tokens</text></g></g><path class="foreground" aria-hidden="true" d="" pointer-events="none" display="none"/></g></g></g><path class="foreground" aria-hidden="true" d="" display="none"/></g></g></g></svg>